<svg xmlns="http://www.w3.org/2000/svg" width="26" height="26" fill="none" viewBox="0 0 26 26">
  <path fill="#E7E4DE" d="M19.175 15.548c.325.169.533.26.598.39.078.143.052.793-.273 1.534-.26.728-1.612 1.43-2.21 1.456-.598.026-.611.468-3.848-.949s-5.187-4.875-5.343-5.096c-.156-.221-1.248-1.794-1.196-3.393.065-1.586.897-2.34 1.235-2.652.312-.338.663-.377.884-.338h.611c.195 0 .468-.078.715.585l.897 2.431c.078.169.13.364.013.572l-.351.533-.507.546c-.156.156-.338.325-.156.65.156.338.806 1.417 1.716 2.314 1.183 1.144 2.223 1.521 2.535 1.69.312.182.507.156.702-.052l1.053-1.222c.247-.325.455-.247.754-.143l2.171 1.144ZM13 0a13 13 0 1 1 0 26 12.96 12.96 0 0 1-6.955-2.015L0 26l2.015-6.045A12.96 12.96 0 0 1 0 13 13 13 0 0 1 13 0Zm0 2.6A10.4 10.4 0 0 0 2.6 13c0 2.236.702 4.303 1.898 5.993L3.25 22.75l3.757-1.248A10.335 10.335 0 0 0 13 23.4a10.4 10.4 0 1 0 0-20.8Z"/>
</svg>
