<svg xmlns="http://www.w3.org/2000/svg" width="49" height="49" fill="none" viewBox="0 0 49 49">
  <circle cx="4.455" cy="4.455" r="4.455" fill="#D9D9D9" fill-opacity=".3" transform="matrix(-1 0 0 1 49 40.09)"/>
  <circle cx="4.455" cy="4.455" r="4.455" fill="#D9D9D9" fill-opacity=".3" transform="matrix(-1 0 0 1 35.637 26.727)"/>
  <circle cx="4.455" cy="4.455" r="4.455" fill="#D9D9D9" fill-opacity=".3" transform="matrix(-1 0 0 1 35.637 13.363)"/>
  <circle cx="4.455" cy="4.455" r="4.455" fill="#D9D9D9" fill-opacity=".3" transform="matrix(-1 0 0 1 35.637 40.09)"/>
  <circle cx="4.455" cy="4.455" r="4.455" fill="#D9D9D9" fill-opacity=".3" transform="matrix(-1 0 0 1 22.273 40.09)"/>
  <circle cx="4.455" cy="4.455" r="4.455" fill="#D9D9D9" fill-opacity=".3" transform="matrix(-1 0 0 1 22.273 26.727)"/>
  <circle cx="4.455" cy="4.455" r="4.455" fill="#D9D9D9" fill-opacity=".3" transform="matrix(-1 0 0 1 8.91 40.09)"/>
  <circle cx="4.455" cy="4.455" r="4.455" fill="#D9D9D9" fill-opacity=".3" transform="matrix(-1 0 0 1 49 26.727)"/>
  <circle cx="4.455" cy="4.455" r="4.455" fill="#D9D9D9" fill-opacity=".3" transform="matrix(-1 0 0 1 49 13.363)"/>
  <circle cx="4.455" cy="4.455" r="4.455" fill="#D9D9D9" fill-opacity=".3" transform="matrix(-1 0 0 1 49 0)"/>
</svg>
