<svg width="23" height="15" viewBox="0 0 23 15" fill="none" xmlns="http://www.w3.org/2000/svg">
<path d="M4 0C3.0392 0 2.25 0.78915 2.25 1.75V3.5C1.2892 3.5 0.5 4.28915 0.5 5.25V10.25V10.75C0.5 11.656 1.20032 12.4092 2.08595 12.4922V14.5C2.08596 14.6326 2.13865 14.7598 2.23241 14.8535C2.32618 14.9473 2.45335 15 2.58595 15H5.08595C5.21855 15 5.34572 14.9473 5.43949 14.8535C5.53325 14.7598 5.58594 14.6326 5.58595 14.5V12.5H17.086V14.5C17.086 14.6326 17.1386 14.7598 17.2324 14.8535C17.3262 14.9473 17.4533 15 17.586 15H20.086C20.2186 15 20.3457 14.9473 20.4395 14.8535C20.5333 14.7598 20.5859 14.6326 20.586 14.5V12.5H20.75C21.7109 12.5 22.5 11.7108 22.5 10.75V10.25V10.125V10.0703V5.25C22.5 4.28917 21.7109 3.5 20.75 3.5V1.75C20.75 0.789175 19.9609 0 19 0H4ZM4 1H19C19.4242 1 19.75 1.32587 19.75 1.75V3.57812C19.131 3.7654 18.6524 4.28573 18.5312 4.9297C18.5263 4.95543 18.5273 4.98165 18.5235 5.0078C18.512 5.08855 18.5 5.16625 18.5 5.25V6H4.5V5.25C4.5 5.15357 4.49175 5.06107 4.4765 4.96875C4.4725 4.945 4.466 4.9218 4.461 4.89845C4.44625 4.82748 4.42938 4.76295 4.4063 4.6953C4.39205 4.65507 4.37652 4.6169 4.35945 4.57812C4.15695 4.10237 3.74965 3.72927 3.25005 3.57812V1.75C3.25005 1.3259 3.57597 1 4 1ZM2.25 4.5H2.75C3.17418 4.5 3.5 4.82587 3.5 5.25V6.5C3.499 6.51822 3.499 6.53648 3.5 6.5547V9C3.50001 9.1326 3.5527 9.25978 3.64646 9.35355C3.74023 9.44731 3.8674 9.49999 4 9.5H19C19.1326 9.49999 19.2598 9.44731 19.3535 9.35355C19.4473 9.25978 19.5 9.1326 19.5 9V6.53905C19.5005 6.52604 19.5005 6.51301 19.5 6.5V5.25C19.5 5.19697 19.506 5.15105 19.5158 5.10155C19.5839 4.75507 19.8791 4.5 20.2501 4.5C20.2657 4.50073 20.2814 4.50073 20.297 4.5H20.7501C21.1743 4.5 21.5001 4.82587 21.5001 5.25V10.125C21.4994 10.1406 21.4994 10.1563 21.5001 10.1719C21.4976 10.1499 21.5001 10.1744 21.5001 10.25V10.75C21.5001 11.1741 21.1743 11.5 20.7501 11.5H5.08605H2.7501H2.58605H2.2501C1.82602 11.5 1.5001 11.1741 1.5001 10.75V10.25V5.25C1.5001 4.8259 1.82592 4.5 2.25 4.5ZM4.5 7H18.5V8.5H4.5V7ZM3.08595 12.5H4.58595V14H3.08595V12.5ZM18.086 12.5H19.586V14H18.086V12.5Z" fill="white"/>
</svg>
