<svg width="19" height="27" viewBox="0 0 19 27" fill="none" xmlns="http://www.w3.org/2000/svg">
<path d="M1.33985 24.4618L3.20984 22.5918" stroke="white"/>
<path d="M3.37975 26.3309L1.50977 24.4609" stroke="white"/>
<path d="M1.50977 24.291H17.9996" stroke="white"/>
<path d="M17.9999 2.86998L16.1299 1" stroke="white"/>
<path d="M15.9603 4.73912L17.8303 2.86914" stroke="white"/>
<path d="M1.50977 2.86914H17.9996" stroke="white"/>
<g clip-path="url(#clip0_1_993)">
<path d="M9.50179 6.48642C9.63231 6.48876 9.76488 6.53526 9.89359 6.61923L17.9686 12.9942C18.176 13.2002 18.3218 13.6437 18.108 13.9173C17.8942 14.1909 17.4446 14.2276 17.185 13.997L9.50179 7.93408L1.8186 13.997C1.55901 14.2276 1.09986 14.198 0.895538 13.9173C0.716251 13.6709 0.760387 13.1996 1.03498 12.9942L3.97679 10.67V7.12392C3.9768 6.95485 4.04398 6.79271 4.16353 6.67316C4.28308 6.55361 4.44522 6.48644 4.61429 6.48642H6.31429C6.48336 6.48644 6.6455 6.55361 6.76505 6.67316C6.8846 6.79271 6.95177 6.95485 6.95179 7.12392V8.32587L9.10998 6.61923C9.24279 6.52592 9.37127 6.48409 9.50179 6.48642ZM5.67679 7.76142H5.25179V9.66728L5.67679 9.32861V7.76142ZM14.6018 12.7087L15.8768 13.7181V19.8739C15.8768 20.043 15.8096 20.2051 15.6901 20.3247C15.5705 20.4442 15.4084 20.5114 15.2393 20.5114H11.4143C11.2452 20.5114 11.0831 20.4442 10.9635 20.3247C10.844 20.2051 10.7768 20.043 10.7768 19.8739V17.5364C10.7768 16.8191 10.2192 16.2614 9.50179 16.2614C8.78441 16.2614 8.22679 16.8191 8.22679 17.5364V19.8739C8.22677 20.043 8.1596 20.2051 8.04005 20.3247C7.9205 20.4442 7.75836 20.5114 7.58929 20.5114H3.76429C3.59522 20.5114 3.43308 20.4442 3.31353 20.3247C3.19398 20.2051 3.12681 20.043 3.12679 19.8739V13.7181L4.40179 12.7087V19.2364H6.95179V17.5364C6.95179 16.1348 8.10012 14.9864 9.50179 14.9864C10.9035 14.9864 12.0518 16.1348 12.0518 17.5364V19.2364H14.6018V12.7087Z" fill="white"/>
</g>
<defs>
<clipPath id="clip0_1_993">
<rect width="17" height="17" fill="white" transform="translate(1 5)"/>
</clipPath>
</defs>
</svg>
