<svg width="31" height="9" viewBox="0 0 31 9" fill="none" xmlns="http://www.w3.org/2000/svg">
<path d="M1 4C0.723858 4 0.5 4.22386 0.5 4.5C0.5 4.77614 0.723858 5 1 5V4ZM30.3536 4.85355C30.5488 4.65829 30.5488 4.34171 30.3536 4.14645L27.1716 0.964466C26.9763 0.769204 26.6597 0.769204 26.4645 0.964466C26.2692 1.15973 26.2692 1.47631 26.4645 1.67157L29.2929 4.5L26.4645 7.32843C26.2692 7.52369 26.2692 7.84027 26.4645 8.03553C26.6597 8.2308 26.9763 8.2308 27.1716 8.03553L30.3536 4.85355ZM1 5L30 5V4L1 4V5Z" fill="#E5C23E"/>
</svg>
