<svg xmlns="http://www.w3.org/2000/svg" width="16" height="16" fill="none" viewBox="0 0 16 16">
  <path fill="#fff" d="M11.8 9.568c.2.104.327.16.367.24.048.088.032.488-.168.944-.16.448-.992.88-1.36.896-.368.016-.376.288-2.368-.584-1.992-.872-3.192-3-3.288-3.136-.096-.136-.768-1.104-.736-2.088.04-.976.552-1.44.76-1.632C5.2 4 5.415 3.976 5.551 4h.376c.12 0 .288-.048.44.36l.552 1.496c.048.104.08.224.008.352l-.216.328-.312.336c-.096.096-.208.2-.096.4.096.208.496.872 1.056 1.424.728.704 1.368.936 1.56 1.04.192.112.312.096.432-.032L10 8.952c.152-.2.28-.152.464-.088l1.336.704ZM8 0a8 8 0 1 1-4.28 14.76L0 16l1.24-3.72A8 8 0 0 1 8 0Zm0 1.6A6.4 6.4 0 0 0 1.6 8a6.36 6.36 0 0 0 1.167 3.688L2 14l2.312-.768A6.36 6.36 0 0 0 8 14.4 6.4 6.4 0 0 0 8 1.6Z"/>
</svg>
