<svg xmlns="http://www.w3.org/2000/svg" width="960" height="1621" fill="none" viewBox="0 0 960 1621">
  <g clip-path="url(#a)" opacity=".5">
    <path fill="#B4762F" d="M483.489 911.471c.678.583.823 1.65.24 2.329-.582.678-1.649.823-2.327.24-.678-.582-.822-1.649-.24-2.328.582-.679 1.649-.823 2.327-.241Z"/>
    <path fill="#E2D35B" d="M435.761 842.169c-.726-.388-.871-1.456-.482-2.183.389-.727 1.455-.872 2.182-.483.727.388.871 1.456.483 2.183-.438.921-1.504 1.066-2.183.483Z"/>
    <path fill="#B4762F" d="M681.493 1037.25c-.824 0-1.647-.83-1.453-1.6.001-.83.826-1.65 1.602-1.46.824 0 1.647.83 1.452 1.6 0 .83-.777 1.46-1.601 1.46Z"/>
    <path fill="#E6DBBD" d="M454.4 1192.44c-.727-.39-.871-1.46-.482-2.18.388-.73 1.455-.87 2.182-.49.726.39.871 1.46.482 2.19-.582.68-1.455.87-2.182.48Z"/>
    <path fill="#C8B855" d="M482.568 864.226c-.727-.389-.871-1.456-.482-2.183.388-.727 1.455-.872 2.182-.484.726.389.871 1.456.482 2.184-.631.872-1.504 1.065-2.182.483Z"/>
    <path fill="#E2DA86" d="M444.347 1163.52c-.726-.38-.871-1.45-.482-2.18.388-.73 1.455-.87 2.182-.48.727.39.871 1.45.482 2.18-.582.68-1.503 1.07-2.182.48Z"/>
    <path fill="#DDBB59" d="M381.433 1059.48c.678.58.822 1.65.24 2.33-.583.68-1.65.82-2.328.24-.678-.58-.822-1.65-.24-2.33.583-.68 1.65-.82 2.328-.24Z"/>
    <path fill="#D5A25F" d="M467.34 1149.09c.678.58.822 1.65.24 2.33-.583.67-1.649.82-2.327.24-.678-.59-.823-1.65-.24-2.33.776-.63 1.6-.63 2.327-.24Zm-79.103-107.7c.678.59.823 1.65.24 2.33-.582.68-1.649.83-2.327.24-.678-.58-.822-1.65-.24-2.33.583-.67 1.649-.82 2.327-.24Z"/>
    <path fill="#AF9B4A" d="M463.151 1167.42c.728-.44 1.697-.19 2.084.73.436.73.192 1.7-.729 2.08-.728.44-1.697.2-2.084-.73-.242-.67.002-1.64.729-2.08Z"/>
    <path fill="#C4AE31" d="M453.291 815.019c.388-.727 1.455-.872 2.182-.483.727.389.871 1.456.482 2.183-.388.727-1.455.872-2.182.483-.727-.388-.871-1.455-.482-2.183Z"/>
    <path fill="#A28726" d="M440.732 1142.62c.389-.73 1.455-.88 2.182-.49.727.39.871 1.46.483 2.19-.389.72-1.456.87-2.182.48-.679-.58-.872-1.46-.483-2.18Z"/>
    <path fill="#885E1C" d="M459.478 924.21c.389-.727 1.455-.872 2.182-.484.727.389.871 1.456.483 2.184-.389.727-1.456.872-2.182.483-.727-.389-.871-1.456-.483-2.183Z"/>
    <path fill="#A28726" d="M486.062 768.188c.389-.727 1.455-.872 2.182-.483.727.389.871 1.456.483 2.183-.389.727-1.456.872-2.182.483-.678-.582-.871-1.455-.483-2.183Z"/>
    <path fill="#D29C33" d="M470.458 901.808c.193.874.871 1.456 1.744 1.263.873-.194 1.456-.872 1.263-1.745-.193-.874-.872-1.456-1.744-1.263-.825-.001-1.456.872-1.263 1.745Z"/>
    <path fill="#DDBB59" d="M729.845 133.436c.873-.194 1.504-1.066 1.311-1.94-.193-.873-1.065-1.504-1.938-1.311-.873.194-1.504 1.066-1.311 1.94.387.921 1.065 1.504 1.938 1.311Z"/>
    <path fill="#D5A25F" d="M623.966 740.935c-.001.824.629 1.601 1.453 1.602.824 0 1.6-.63 1.601-1.454.001-.825-.628-1.601-1.452-1.602-.825-.001-1.601.629-1.602 1.454Z"/>
    <path fill="#B59D50" d="M669.05 554.708c-.001.825.629 1.601 1.453 1.602.824.001 1.6-.629 1.601-1.454.001-.824-.628-1.601-1.452-1.602-.776-.194-1.552.436-1.602 1.454Z"/>
    <path fill="#9F6122" d="M610.642 1106.9a1.56 1.56 0 0 0 2.132.53c.728-.43.971-1.4.536-2.13a1.573 1.573 0 0 0-2.133-.54c-.534.49-.971 1.41-.535 2.14Z"/>
    <path fill="#fff" d="M956.674 231.393c.387.922 1.163 1.117 2.036.924.921-.388 1.116-1.164.923-2.037-.387-.922-1.163-1.116-2.035-.923-.679.242-1.117 1.163-.924 2.036Z"/>
    <path fill="#C4922F" d="M670.686 101.475c.389-.727 1.504-1.066 2.182-.483.727.388 1.065 1.504.483 2.183-.389.727-1.504 1.066-2.182.483-.727-.388-.871-1.455-.483-2.183Z"/>
    <path fill="#D5A25F" d="M654.655 1017.73c-.001.82-.826 1.65-1.65 1.65s-1.647-.83-1.647-1.65c.001-.83.826-1.65 1.65-1.65.825 0 1.648.83 1.647 1.65Z"/>
    <path fill="#CCB253" d="M402.253 1037.28c0 .83.823 1.65 1.696 1.46.824 0 1.649-.83 1.456-1.7.001-.82-.823-1.65-1.695-1.46-.825 0-1.65.83-1.457 1.7Z"/>
    <path fill="#DFC78B" d="M684.716 966.918c.824.001 1.649-.823 1.456-1.696.001-.825-.822-1.65-1.695-1.457-.824 0-1.649.824-1.456 1.697-.001.824.871 1.456 1.695 1.456Z"/>
    <path fill="#DAAC4F" d="M312.552 817.436c.824 0 1.649-.824 1.456-1.697.001-.824-.822-1.65-1.695-1.456-.824-.001-1.649.823-1.456 1.696.193.874.871 1.456 1.695 1.457Z"/>
    <path fill="#E6DD81" d="M300.745 796.328c.728-.436 1.165-1.358.73-2.086-.436-.728-1.356-1.165-2.084-.729-.728.436-1.165 1.358-.729 2.085.435.728 1.356 1.166 2.083.73Z"/>
    <path fill="#E8E2A4" d="M621.744 500.153c.727-.436 1.164-1.357.729-2.085-.436-.728-1.356-1.166-2.084-.73-.728.436-1.165 1.358-.729 2.086.435.728 1.356 1.165 2.084.729Z"/>
    <path fill="#E1D668" d="M598.018 1031.56c.728-.44.971-1.41.342-2.18-.436-.73-1.405-.97-2.182-.34-.727.43-.971 1.4-.341 2.18.435.73 1.453.78 2.181.34Z"/>
    <path fill="#DCB449" d="M466.507 1064.54c.824 0 1.649-.82 1.456-1.7.001-.82-.822-1.65-1.695-1.45-.824 0-1.649.82-1.456 1.69-.001.83.823 1.65 1.695 1.46Z"/>
    <path fill="#B4762F" d="M832.342 541.249c-.389.728-1.455.872-2.182.484-.727-.389-.871-1.456-.483-2.183.389-.728 1.456-.872 2.182-.484.727.389.872 1.456.483 2.183Z"/>
    <path fill="#8F6E3F" d="M753.455 505.781c.582-.678 1.649-.823 2.327-.24.678.582.823 1.649.24 2.328-.582.679-1.649.823-2.327.241-.678-.583-.822-1.65-.24-2.329Z"/>
    <path fill="#E1D16F" d="M809.702 495.152c.727.389 1.114 1.311.725 2.038-.389.727-1.31 1.115-2.037.726-.727-.388-1.114-1.31-.725-2.038.195-.776 1.116-1.163 2.037-.726Z"/>
    <path fill="#8F6E3F" d="M405.26 801.936c.726.388 1.113 1.31.725 2.037-.389.728-1.31 1.115-2.037.726-.727-.388-1.114-1.31-.725-2.037.437-.922 1.31-1.115 2.037-.726Z"/>
    <path fill="#DDBB59" d="M458.812 1098.49c-.727.44-1.745.39-2.181-.34-.436-.73-.386-1.75.342-2.18.727-.44 1.745-.39 2.181.34.435.73.386 1.74-.342 2.18Z"/>
    <path fill="#DAAC4F" d="M277.405 771.087c.727.388 1.114 1.31.725 2.038-.388.727-1.31 1.114-2.037.726-.727-.389-1.113-1.311-.725-2.038.195-.776 1.116-1.163 2.037-.726Z"/>
    <path fill="#DDBB59" d="M704.308 542.317c.678.582.822 1.65.24 2.328-.583.679-1.65.824-2.328.241-.678-.582-.822-1.65-.24-2.328.777-.63 1.649-.824 2.328-.241Zm-98.11 455.004a1.57 1.57 0 0 1-.535 2.134 1.568 1.568 0 0 1-2.133-.535 1.57 1.57 0 0 1 .536-2.134 1.567 1.567 0 0 1 2.132.535Z"/>
    <path fill="#885E1C" d="M816.9 519.023c.727.388 1.114 1.31.725 2.037-.388.728-1.31 1.115-2.037.726-.726-.388-1.113-1.31-.725-2.037.438-.922 1.311-1.115 2.037-.726Z"/>
    <path fill="#A28726" d="M347.066 821.149c.727.388 1.114 1.31.725 2.037-.388.728-1.31 1.115-2.037.726-.726-.388-1.113-1.31-.725-2.037.438-.922 1.31-1.115 2.037-.726Z"/>
    <path fill="#E8E2A4" d="M822.636 318.796c.388-.727 1.31-1.114 2.037-.726.726.389 1.113 1.311.725 2.038-.389.727-1.31 1.115-2.037.726-.727-.389-1.114-1.31-.725-2.038Z"/>
    <path fill="#C4922F" d="M532.41 1092.63c.583-.68 1.601-.63 2.23.14.678.59.629 1.61-.147 2.24-.583.67-1.601.62-2.23-.15-.63-.78-.629-1.6.147-2.23Z"/>
    <path fill="#DDB867" d="M553.707 1079.21c.583-.68 1.601-.63 2.23.14.678.59.629 1.61-.148 2.24-.582.67-1.6.62-2.229-.15-.485-.54-.435-1.55.147-2.23Z"/>
    <path fill="#B59D50" d="M843.601 576.861c.388-.728 1.31-1.115 2.036-.726.727.388 1.114 1.31.725 2.037-.388.728-1.31 1.115-2.036.727-.727-.389-1.114-1.311-.725-2.038Z"/>
    <path fill="#A1914B" d="M727.247 533.846c.389-.727 1.31-1.115 2.037-.726.727.389 1.114 1.311.725 2.038-.389.727-1.31 1.114-2.037.726-.727-.389-1.114-1.311-.725-2.038Z"/>
    <path fill="#6C4B15" d="M791.269 460.214c.388-.727 1.31-1.114 2.036-.726.727.389 1.114 1.311.725 2.038-.388.727-1.31 1.115-2.036.726-.727-.389-1.114-1.31-.725-2.038Z"/>
    <path fill="#C4AE31" d="M747.282 101.727c.389-.727 1.31-1.115 2.037-.726.727.388 1.114 1.31.725 2.038-.388.727-1.31 1.114-2.037.726-.775-.195-1.162-1.117-.725-2.038Z"/>
    <path fill="#9F6122" d="M808.11 533.519c.389-.727 1.31-1.115 2.037-.726.727.388 1.114 1.31.725 2.038-.388.727-1.31 1.114-2.037.726-.775-.195-1.113-1.311-.725-2.038Z"/>
    <path fill="#BAA14F" d="M771.184 146.078c.727.389 1.114 1.311.725 2.038-.388.727-1.31 1.114-2.037.726-.726-.389-1.113-1.311-.725-2.038.389-.727 1.31-1.115 2.037-.726Z"/>
    <path fill="#705618" d="M834.842 561.672c.727.389 1.114 1.311.725 2.038-.388.727-1.31 1.115-2.037.726-.726-.388-1.113-1.31-.725-2.038.389-.727 1.262-.92 2.037-.726Z"/>
    <path fill="#E2D35B" d="M946.739 275.914c.727.389 1.114 1.31.725 2.038-.389.727-1.31 1.114-2.037.726-.727-.389-1.114-1.311-.725-2.038.195-.776 1.116-1.163 2.037-.726Z"/>
    <path fill="#AFA54E" d="M663.374 560.088c.726.388 1.113 1.31.725 2.038-.389.727-1.31 1.114-2.037.726-.727-.389-1.114-1.311-.725-2.038.195-.776 1.31-1.115 2.037-.726Z"/>
    <path fill="#C8B855" d="M642.47 148.213c.776-.63 1.552-.435 2.23.147.629.777.435 1.553-.148 2.231-.776.63-1.552.436-2.23-.147-.435-.728-.386-1.746.148-2.231Zm23.482 28.781c.777-.63 1.552-.435 2.23.147.63.777.435 1.553-.148 2.232-.776.63-1.551.435-2.229-.148-.63-.776-.58-1.795.147-2.231Z"/>
    <path fill="#B98136" d="M574.404 1036.15c.873-.19 1.794.24 2.035.92.193.88-.244 1.8-.923 2.04-.873.19-1.793-.24-2.035-.92-.387-.93.05-1.85.923-2.04Z"/>
    <path fill="#fff" d="M552.631 995.632c.872-.194 1.793.244 2.035.923.193.873-.244 1.794-.923 2.036-.873.194-1.794-.244-2.036-.923-.435-.728.002-1.649.924-2.036Z"/>
    <path fill="#E8E2A4" d="M839.634 848.052a1.568 1.568 0 0 1 2.133.535 1.57 1.57 0 0 1-.536 2.134 1.567 1.567 0 0 1-2.132-.536c-.63-.776-.192-1.697.535-2.133Z"/>
    <path fill="#E9E3BD" d="M758.009 462.178c.873-.193 1.455-.872 1.262-1.745-.193-.873-.871-1.456-1.744-1.263-.873.194-1.455.872-1.262 1.746-.001.824.871 1.456 1.744 1.262Z"/>
    <path fill="#C4922F" d="M542.226 1023.95c-.775-.19-1.697.19-2.086.92-.194.78.193 1.7.919 2.09.776.19 1.697-.2 2.086-.92.437-.92-.143-1.89-.919-2.09Z"/>
    <path fill="#D6BF33" d="M687.561 655.856c-.824-.001-1.649.823-1.456 1.696-.001.825.822 1.65 1.695 1.457.824 0 1.649-.824 1.456-1.697-.047-.631-.871-1.456-1.695-1.456Z"/>
    <path fill="#5F4012" d="M565.894 1061.03c-.728.43-.971 1.4-.342 2.18.436.73 1.405.97 2.181.34.728-.44.971-1.41.342-2.18-.436-.73-1.648-.83-2.181-.34Z"/>
    <path fill="#DAAC4F" d="M401.5 1061.63c-.775-.19-1.697.19-2.085.92-.195.78.192 1.7.919 2.09.775.19 1.697-.2 2.085-.92.389-.73.002-1.65-.919-2.09Z"/>
    <path fill="#9F6122" d="M762.084 179.88c-.824-.001-1.649.823-1.456 1.696-.001.825.822 1.65 1.695 1.457.824 0 1.649-.824 1.456-1.697.001-.825-.871-1.456-1.695-1.456Z"/>
    <path fill="#E4D3B7" d="M748.611 502.092c-.824-.001-1.649.823-1.456 1.696-.001.825.822 1.65 1.695 1.457.824 0 1.649-.824 1.456-1.697-.193-.873-.871-1.456-1.695-1.456Z"/>
    <path fill="#C4922F" d="M339.151 833.802c-.824 0-1.649.824-1.456 1.697-.001.824.822 1.65 1.695 1.456.824.001 1.649-.823 1.456-1.696.001-.825-.822-1.65-1.695-1.457Z"/>
    <path fill="#E8E2A4" d="M570.685 1023.05c-.775-.19-1.697.19-2.086.92-.194.78.193 1.7.919 2.09.776.19 1.697-.2 2.086-.92.437-.92-.144-1.9-.919-2.09Z"/>
    <path fill="#C8B855" d="M735.7 144.596c-.824 0-1.649.824-1.456 1.697-.001.824.822 1.65 1.695 1.456.824.001 1.649-.823 1.456-1.696.001-.825-.628-1.601-1.695-1.457Z"/>
    <path fill="#fff" d="M514.649 1064.04c-.776-.19-1.697.2-2.086.92-.195.78.192 1.7.919 2.09.776.2 1.697-.19 2.086-.92.243-.97-.144-1.89-.919-2.09Z"/>
    <path fill="#A28726" d="M530.03 1050.38c-.776-.2-1.697.19-2.086.92-.195.77.192 1.69.919 2.08.727.39 1.697-.19 2.085-.92.438-.92.051-1.84-.918-2.08Z"/>
    <path fill="#C8B855" d="M741.745 531.917c-.824-.001-1.649.823-1.456 1.696-.001.825.822 1.65 1.695 1.457.824 0 1.649-.824 1.456-1.697.001-.825-.822-1.65-1.695-1.456Z"/>
    <path fill="#804617" d="M498.834 1119.67c-.436-.73-1.454-.78-2.182-.34-.727.43-.777 1.45-.341 2.18.435.73 1.453.78 2.181.34s.777-1.45.342-2.18Z"/>
    <path fill="#E2D35B" d="M488.639 993.595c-.776-.195-1.697.193-2.086.92-.194.776.193 1.698.919 2.086.776.195 1.697-.192 2.086-.92.243-.97-.144-1.891-.919-2.086Z"/>
    <path fill="#BAA14F" d="M727.752 514.59c-.824-.001-1.649.823-1.456 1.696.193.873.822 1.65 1.695 1.457.824 0 1.649-.824 1.456-1.697.001-.825-.677-1.407-1.695-1.456Z"/>
    <path fill="#E2D35B" d="M691.043 664.977c-.824 0-1.649.824-1.456 1.697-.001.824.822 1.65 1.695 1.456.824.001 1.649-.823 1.456-1.696.001-.825-.677-1.407-1.695-1.457Z"/>
    <path fill="#AA8C25" d="M355.129 807.088c-.825-.001-1.65.823-1.457 1.696 0 .825.823 1.65 1.696 1.457.824 0 1.649-.824 1.456-1.697.001-.825-.871-1.456-1.695-1.456Z"/>
    <path fill="#B59D50" d="M595.051 948.128c-.775-.194-1.697.193-2.085.92-.195.776.192 1.698.918 2.087.776.194 1.697-.193 2.086-.92.243-.97-.143-1.892-.919-2.087Z"/>
    <path fill="#E1D16F" d="M526.178 1024.67c-.775-.2-1.697.19-2.085.92-.195.77.192 1.69.918 2.08.776.2 1.697-.19 2.086-.92.243-.97-.143-1.89-.919-2.08Z"/>
    <path fill="#fff" d="M306.546 813.454c-.825-.001-1.65.823-1.457 1.696 0 .825.823 1.65 1.696 1.457.824 0 1.649-.824 1.456-1.697-.193-.873-.823-1.65-1.695-1.456Z"/>
    <path fill="#B59D50" d="M568.512 1013.64c-.775-.2-1.697.19-2.086.92-.194.78.193 1.7.919 2.09.776.19 1.697-.2 2.086-.92.437-.93.05-1.85-.919-2.09Z"/>
    <path fill="#DDBB59" d="M725.406 627.412c-.001.825.822 1.65 1.695 1.456.824.001 1.649-.823 1.456-1.696.001-.825-.822-1.65-1.695-1.457-.873.194-1.649.824-1.456 1.697Z"/>
    <path fill="#A27E49" d="M676.722 543.848c-.001.825.823 1.65 1.695 1.457.825.001 1.65-.823 1.457-1.697 0-.824-.823-1.649-1.696-1.456-.63.048-1.406.678-1.456 1.696Z"/>
    <path fill="#A59352" d="M674.616 1076.15c.436.72 1.405.97 2.181.34.728-.44.971-1.41.342-2.19-.436-.72-1.405-.97-2.181-.34-.728.44-.777 1.46-.342 2.19Z"/>
    <path fill="#E8E2A4" d="M784.722 507.648c-.001.825.823 1.65 1.695 1.457.825 0 1.65-.824 1.457-1.697 0-.824-.823-1.65-1.696-1.456-.824-.001-1.649.823-1.456 1.696Z"/>
    <path fill="#A1914B" d="M425.956 1087.36c-.195.77.192 1.69.919 2.08.775.2 1.697-.19 2.085-.92.195-.77-.192-1.69-.919-2.08-.775-.2-1.697.19-2.085.92Z"/>
    <path fill="#A28726" d="M686.312 1250.43c-.001.83.822 1.65 1.695 1.46.824 0 1.649-.82 1.456-1.7.001-.82-.822-1.65-1.695-1.45-.63.04-1.455.87-1.456 1.69Z"/>
    <path fill="#CCB253" d="M816.865 553.655c-.001.825.822 1.65 1.695 1.457.824 0 1.649-.824 1.456-1.697.001-.825-.822-1.65-1.695-1.456-.873.193-1.649.823-1.456 1.696Z"/>
    <path fill="#E8E2A4" d="M638.714 1149.41c-.195.78.192 1.7.919 2.09.775.19 1.697-.2 2.085-.92.195-.78-.192-1.7-.919-2.09-.969-.24-1.891.14-2.085.92Z"/>
    <path fill="#A28726" d="M661.899 859.123c-.776-.195-1.697.193-2.086.92-.195.776.192 1.698.919 2.086.776.195 1.697-.192 2.086-.92.437-.921.001-1.649-.919-2.086Z"/>
    <path fill="#C4922F" d="M450.967 1091.16c-.194.78.193 1.7.919 2.09.776.19 1.697-.2 2.086-.92.195-.78-.192-1.7-.919-2.09-.775-.2-1.697.19-2.086.92Z"/>
    <path fill="#A28726" d="M738.595 484.524c-.001.825.823 1.65 1.696 1.457.824 0 1.649-.824 1.456-1.697.001-.824-.823-1.65-1.696-1.456-.872.193-1.455.872-1.456 1.696ZM477.173 1063.92c-.195.77.192 1.7.919 2.08.775.2 1.697-.19 2.086-.92.194-.77-.193-1.69-.919-2.08-.921-.44-1.843-.05-2.086.92Z"/>
    <path fill="#E9E3BD" d="M813.935 574.365c-.001.825.823 1.65 1.695 1.457.825 0 1.65-.824 1.457-1.697 0-.825-.823-1.65-1.696-1.456-.63.048-1.406.678-1.456 1.696Z"/>
    <path fill="#A28726" d="M625.94 566.365c.727.389 1.114 1.311.725 2.038-.388.727-1.31 1.115-2.037.726-.726-.389-1.113-1.31-.725-2.038.195-.776 1.31-1.114 2.037-.726Z"/>
    <path fill="#9D8524" d="M785.818 153.463c-.001.824.822 1.65 1.695 1.456.824.001 1.649-.823 1.456-1.696.001-.825-.822-1.65-1.695-1.457-.824 0-1.455.872-1.456 1.697Z"/>
    <path fill="#CCB253" d="M756.464 175.995c0 .825.823 1.65 1.696 1.456.824.001 1.649-.823 1.456-1.696.001-.825-.823-1.65-1.695-1.457-.825 0-1.65.824-1.457 1.697Z"/>
    <path fill="#C8A336" d="M710.42 539.314c-.001.825.822 1.65 1.695 1.457.824 0 1.649-.824 1.456-1.697.001-.824-.823-1.65-1.695-1.456-.824-.001-1.649.823-1.456 1.696Z"/>
    <path fill="#E8E2A4" d="M490.511 1151.19c-.824 0-1.649.82-1.456 1.7-.001.82.823 1.65 1.696 1.45.824 0 1.649-.82 1.456-1.69-.193-.88-.871-1.46-1.696-1.46Z"/>
    <path fill="#D8AD78" d="M778.924 768.893c-.825 0-1.65.824-1.457 1.697 0 .824.823 1.65 1.696 1.456.824.001 1.649-.823 1.456-1.696-.193-.874-.871-1.456-1.695-1.457Z"/>
    <path fill="#E2D35B" d="M781.103 260.123c.678.582.822 1.649.24 2.328-.583.679-1.65.823-2.328.241-.678-.583-.822-1.65-.24-2.329.583-.678 1.649-.823 2.328-.24Z"/>
    <path fill="#E1DC7C" d="M460.863 944.147c-.727-.389-.871-1.456-.482-2.183.388-.728 1.455-.872 2.182-.484.726.389.871 1.456.482 2.183-.582.679-1.455.872-2.182.484Z"/>
    <path fill="#8F6E3F" d="M675.148 704.497c.389-.727 1.455-.872 2.182-.483.727.388.871 1.455.483 2.183-.389.727-1.456.872-2.182.483-.727-.389-.872-1.456-.483-2.183Z"/>
    <path fill="#D8AD78" d="M779.444 222.383c.678.583.823 1.65.24 2.329-.582.678-1.649.823-2.327.241-.678-.583-.822-1.65-.24-2.329.583-.679 1.649-.823 2.327-.241Z"/>
    <path fill="#B4762F" d="M667.08 771.138c-.727-.389-.871-1.456-.483-2.183.389-.727 1.456-.872 2.182-.483.727.388.871 1.455.483 2.183-.437.921-1.504 1.066-2.182.483Z"/>
    <path fill="#C4AE31" d="M773.261 200.212c.389-.728 1.456-.872 2.182-.484.727.389.872 1.456.483 2.183-.389.728-1.455.872-2.182.484-.872-.631-1.065-1.505-.483-2.183Z"/>
    <path fill="#D8AD78" d="M674.586 686.211c.388-.728 1.455-.872 2.182-.484.726.389.871 1.456.482 2.183-.388.728-1.455.872-2.182.484-.921-.437-1.065-1.505-.482-2.183Zm19.845 76.119c.389-.727 1.456-.872 2.182-.483.727.388.871 1.455.483 2.183-.389.727-1.455.872-2.182.483-.678-.583-.871-1.456-.483-2.183Z"/>
    <path fill="#E6DBBD" d="M766.484 191.913c.389-.727 1.455-.872 2.182-.483.727.388.871 1.455.483 2.183-.389.727-1.456.872-2.182.483-.727-.389-1.114-1.31-.483-2.183ZM287.923 819.504c.389-.728 1.456-.872 2.183-.484.726.389.871 1.456.482 2.183-.389.728-1.455.872-2.182.484-.727-.389-.871-1.456-.483-2.183Z"/>
    <path fill="#E7DDBB" d="M782.689 179.895c.389-.727 1.455-.872 2.182-.483.727.389.871 1.456.483 2.183-.389.727-1.456.872-2.182.483-.921-.437-1.114-1.31-.483-2.183Z"/>
    <path fill="#DDBB59" d="M703.173 235.617c.678.582.822 1.649.24 2.328-.583.679-1.649.823-2.327.241-.679-.583-.823-1.65-.24-2.329.776-.63 1.649-.823 2.327-.24Z"/>
    <path fill="#D5A25F" d="M709.369 196.962c.678.583.823 1.65.24 2.329-.582.678-1.649.823-2.327.24-.678-.582-.822-1.649-.24-2.328.582-.679 1.6-.629 2.327-.241Z"/>
    <path fill="#C4922F" d="M688.745 730.797c.824.001 1.6-.629 1.795-1.405.001-.825-.629-1.601-1.404-1.796-.824 0-1.6.63-1.795 1.406-.244.97.386 1.746 1.404 1.795Z"/>
    <path fill="#C8B855" d="M758.376 156.885c-.001.825.629 1.601 1.453 1.602.824 0 1.601-.63 1.601-1.454.001-.825-.628-1.601-1.452-1.602-.824 0-1.601.629-1.602 1.454Z"/>
    <path fill="#fff" d="M392.099 1035.42c.711.52 1.712.37 2.235-.34.523-.71.371-1.71-.341-2.24a1.602 1.602 0 0 0-2.235.34c-.523.72-.371 1.72.341 2.24Z"/>
    <path fill="#5F4012" d="M722.099 216.859a1.567 1.567 0 0 0 2.132.535 1.57 1.57 0 0 0 .536-2.133 1.569 1.569 0 0 0-2.133-.536 1.57 1.57 0 0 0-.535 2.134Z"/>
    <path fill="#DCB449" d="M392.394 1008.41c.435.73 1.404.97 2.132.54.728-.44.971-1.41.536-2.14a1.57 1.57 0 0 0-2.133-.53c-.728.44-.971 1.41-.535 2.13Z"/>
    <path fill="#E8E2A4" d="M685.809 1035.65c.727.39 1.648 0 2.085-.92.389-.73.002-1.65-.919-2.08-.726-.39-1.648-.01-2.085.92-.195.77.143 1.89.919 2.08Z"/>
    <path fill="#D5A25F" d="M418.665 824.889c-.195.776-1.165 1.357-1.94 1.162-.776-.194-1.356-1.165-1.162-1.941.195-.776 1.165-1.357 1.941-1.162.969.243 1.356 1.165 1.161 1.941Z"/>
    <path fill="#A28726" d="M596.851 288.942c-.195.775-1.165 1.357-1.941 1.162-.775-.194-1.356-1.165-1.161-1.941.195-.776 1.165-1.357 1.94-1.163.776.195 1.356 1.166 1.162 1.942Z"/>
    <path fill="#E2D35B" d="M727.442 160.258c-.776-.195-1.405-.972-1.162-1.942.195-.776.971-1.406 1.941-1.162.775.194 1.404.971 1.161 1.941-.437.921-1.165 1.357-1.94 1.163Z"/>
    <path fill="#E7DDBB" d="M400.1 1055.71c-.776-.19-1.405-.97-1.162-1.94.195-.78.971-1.41 1.941-1.16.775.19 1.405.97 1.161 1.94-.388.73-1.165 1.36-1.94 1.16Z"/>
    <path fill="#DBCB75" d="M217.271 789.813c.678.583.822 1.65.239 2.328-.582.679-1.649.824-2.327.241-.678-.582-.822-1.65-.24-2.328.583-.679 1.649-.824 2.328-.241Z"/>
    <path fill="#E2D35B" d="M252.546 806.914c.678.582.822 1.649.24 2.328-.583.679-1.649.823-2.327.241-.678-.583-.823-1.65-.24-2.329.582-.678 1.649-.823 2.327-.24Z"/>
    <path fill="#E7DDBB" d="M218.37 805.142c.678.583.823 1.65.24 2.329-.582.678-1.649.823-2.327.24-.678-.582-.823-1.65-.24-2.328.582-.679 1.649-.823 2.327-.241Z"/>
    <path fill="#E1DC7C" d="M298.81 745.735c-.726-.389-.871-1.456-.482-2.183.388-.728 1.455-.872 2.182-.484.727.389.871 1.456.482 2.183-.437.922-1.31 1.115-2.182.484Z"/>
    <path fill="#E2D35B" d="M283.812 810.43c.389-.728 1.455-.872 2.182-.484.727.389.871 1.456.483 2.183-.389.728-1.456.872-2.182.484-.727-.389-.871-1.456-.483-2.183Z"/>
    <path fill="#8F6E3F" d="M525.111 1073.27c.001-.83.826-1.65 1.601-1.46.824 0 1.647.83 1.453 1.61-.001.82-.826 1.64-1.602 1.45-.824 0-1.453-.78-1.452-1.6Z"/>
    <path fill="#7E6B1D" d="M266.265 808.088c.678.583.822 1.65.24 2.329-.583.678-1.65.823-2.328.241-.678-.583-.822-1.65-.24-2.329.583-.679 1.65-.823 2.328-.241Z"/>
    <path fill="#DDBB59" d="M245.095 793.084c.678.583.822 1.65.24 2.329-.583.679-1.649.823-2.327.241-.679-.583-.823-1.65-.24-2.329.582-.678 1.649-.823 2.327-.241Z"/>
    <path fill="#D8AD78" d="M209.744 801.741c.678.582.823 1.649.24 2.328-.582.679-1.649.823-2.327.241-.678-.583-.822-1.65-.24-2.329.583-.678 1.6-.629 2.327-.24Z"/>
    <path fill="#B4762F" d="M249.277 779.7c-.727-.389-.871-1.456-.482-2.184.388-.727 1.455-.872 2.182-.483.726.389.871 1.456.482 2.183-.582.679-1.455.872-2.182.484Z"/>
    <path fill="#C4AE31" d="M467.699 1084.43c0-.83.825-1.65 1.601-1.45.824 0 1.647.82 1.453 1.6-.001.82-.826 1.65-1.602 1.45-.63.05-1.453-.78-1.452-1.6Z"/>
    <path fill="#D8AD78" d="M237.086 756.845c.388-.728 1.455-.872 2.182-.484.726.389.871 1.456.482 2.183-.388.728-1.455.872-2.182.484-.727-.389-.92-1.262-.482-2.183Zm14.455-8.332c.388-.728 1.455-.872 2.182-.484.727.389.871 1.456.482 2.183-.388.728-1.455.872-2.182.484-.678-.583-1.065-1.505-.482-2.183Z"/>
    <path fill="#E6DBBD" d="M294.55 785.7c.389-.727 1.456-.872 2.183-.483.726.388.871 1.455.482 2.183-.389.727-1.455.872-2.182.483-.727-.388-.871-1.456-.483-2.183Z"/>
    <path fill="#E7DDBB" d="M307.447 786.05c.389-.728 1.455-.872 2.182-.484.727.389.871 1.456.482 2.183-.388.728-1.455.872-2.182.484-.678-.583-.871-1.456-.482-2.183Z"/>
    <path fill="#DDBB59" d="M428.946 1054.91c.678.58.823 1.65.24 2.33-.582.68-1.649.82-2.327.24-.678-.58-.822-1.65-.24-2.33.583-.68 1.649-.82 2.327-.24Zm80.652-77.501c.583-.678 1.601-.629 2.279-.046.678.582.629 1.601.046 2.279-.582.679-1.6.63-2.278.047-.679-.582-.629-1.601-.047-2.28Z"/>
    <path fill="#C4922F" d="M407.707 1013.08c-.727-.39-.871-1.45-.483-2.18.389-.73 1.456-.87 2.182-.49.727.39.871 1.46.483 2.19-.389.73-1.455.87-2.182.48Z"/>
    <path fill="#B59D50" d="M489.761 800.253c-.726-.388-.871-1.456-.482-2.183.389-.727 1.455-.872 2.182-.483.727.388.871 1.456.483 2.183-.389.727-1.456.872-2.183.483Z"/>
    <path fill="#705618" d="M434.847 1020.72c.389-.73 1.456-.87 2.182-.49.727.39.871 1.46.483 2.19-.389.72-1.455.87-2.182.48-.727-.39-1.065-1.5-.483-2.18Z"/>
    <path fill="#E2D35B" d="M407.673 1045.24c.389-.73 1.456-.87 2.183-.48.726.39.871 1.45.482 2.18-.389.73-1.455.87-2.182.48-.678-.58-.871-1.45-.483-2.18Z"/>
    <path fill="#AFA54E" d="M426.084 1011.3c.388-.73 1.455-.87 2.182-.48.727.39.871 1.45.482 2.18-.388.73-1.455.87-2.182.48-.727-.38-.871-1.45-.482-2.18Z"/>
    <path fill="#E9E3BD" d="M280.813 803.491c.001-.824-.822-1.649-1.646-1.65-.824-.001-1.649.823-1.65 1.648-.001.824.822 1.65 1.646 1.65 1.018.05 1.795-.58 1.65-1.648Z"/>
    <path fill="#9F6122" d="M415.905 1009.16c-.001.82.629 1.6 1.404 1.79.824.01 1.601-.62 1.796-1.4 0-.83-.629-1.6-1.405-1.8-.824 0-1.6.63-1.795 1.41Z"/>
    <path fill="#A28726" d="M412.575 1041.32c-.001.82.629 1.6 1.404 1.79.824 0 1.601-.63 1.795-1.4.001-.83-.628-1.61-1.404-1.8-1.018-.05-1.794.58-1.795 1.41Z"/>
    <path fill="#C8B855" d="M249.372 781.786c-.001.824.629 1.601 1.404 1.796.824 0 1.601-.63 1.795-1.406.001-.824-.628-1.601-1.404-1.796-1.018-.049-1.794.581-1.795 1.406Z"/>
    <path fill="#DCB449" d="M444.147 1029.65c.824 0 1.601-.63 1.795-1.41.001-.82-.628-1.6-1.404-1.79-.824 0-1.6.63-1.795 1.4-.049 1.02.58 1.8 1.404 1.8Z"/>
    <path fill="#E2DA86" d="M265.075 785.726c.824.001 1.6-.629 1.795-1.405.001-.825-.628-1.601-1.404-1.796-.824-.001-1.6.629-1.795 1.405-.05 1.019.58 1.795 1.404 1.796Z"/>
    <path fill="#A28726" d="M286.745 786.422c-.001.824.629 1.601 1.404 1.795.824.001 1.601-.629 1.795-1.405.001-.825-.628-1.601-1.404-1.796-.775-.194-1.551.436-1.795 1.406Z"/>
    <path fill="#C4922F" d="M313.77 764.129c.824.001 1.601-.629 1.795-1.405.001-.824-.628-1.601-1.404-1.796-.824 0-1.6.63-1.795 1.406-.243.97.386 1.746 1.404 1.795Z"/>
    <path fill="#E9E3BD" d="M454.413 1039.65c.824 0 1.6-.63 1.795-1.41.001-.82-.629-1.6-1.404-1.79-.824 0-1.6.63-1.795 1.4-.001.83.628 1.6 1.404 1.8Z"/>
    <path fill="#CCB253" d="M267.78 796.302c.824.001 1.601-.629 1.795-1.405.001-.825-.628-1.601-1.404-1.796-.824 0-1.6.63-1.795 1.405-.05 1.019.58 1.796 1.404 1.796Z"/>
    <path fill="#C4922F" d="M380.007 1031.49c-.001.83.629 1.6 1.453 1.6.824 0 1.6-.63 1.601-1.45.001-.82-.628-1.6-1.452-1.6-.776-.2-1.601.63-1.602 1.45ZM277.601 769.487c-.001.824.629 1.601 1.453 1.601.824.001 1.6-.629 1.601-1.454.001-.824-.629-1.601-1.453-1.601-.824-.001-1.6.629-1.601 1.454Z"/>
    <path fill="#C8B855" d="M233.622 776.39c0 .825.629 1.601 1.453 1.602.824 0 1.601-.63 1.601-1.454.001-.825-.628-1.601-1.452-1.602-.824-.001-1.601.629-1.602 1.454Z"/>
    <path fill="#E2D35B" d="M424.177 979.479c.389-.727 1.456-.872 2.182-.483.727.389.872 1.456.483 2.183-.389.727-1.455.872-2.182.483-.727-.388-.92-1.261-.483-2.183Z"/>
    <path fill="#B4762F" d="M389.084 1066.76c-.727-.39-.871-1.45-.483-2.18.389-.73 1.455-.87 2.182-.48.727.39.871 1.45.483 2.18-.389.73-1.455.87-2.182.48Z"/>
    <path fill="#C4AE31" d="M423.089 1000.24c.389-.728 1.456-.873 2.183-.484.726.384.871 1.454.482 2.184-.389.73-1.455.87-2.182.48-.921-.44-1.065-1.5-.483-2.18Z"/>
    <path fill="#D8AD78" d="M197.412 726.062c.388-.727 1.455-.872 2.182-.483.727.389.871 1.456.482 2.183-.388.727-1.455.872-2.182.483-.678-.582-1.065-1.504-.482-2.183Zm152.531 264.276c.389-.728 1.455-.872 2.182-.484.727.389.871 1.456.483 2.183-.389.728-1.456.872-2.182.484-.679-.583-.872-1.456-.483-2.183Z"/>
    <path fill="#E6DBBD" d="M388.937 1023.01c.678.58.871 1.46.482 2.18-.582.68-1.455.88-2.182.49-.678-.58-.871-1.46-.483-2.19.389-.72 1.504-1.06 2.183-.48Z"/>
    <path fill="#E7DDBB" d="M433.463 1000.78c.388-.73 1.455-.872 2.182-.48.726.39.871 1.45.482 2.18-.388.73-1.455.87-2.182.48-.727-.39-.871-1.45-.482-2.18Z"/>
    <path fill="#fff" d="M462.064 1001.77c-.001.83.628 1.6 1.453 1.6.824 0 1.6-.63 1.601-1.45.001-.82-.629-1.6-1.453-1.6-.824 0-1.6.63-1.601 1.45Z"/>
    <path fill="#B59D50" d="M404.697 1018.51c-.001.83.628 1.6 1.452 1.6.825 0 1.601-.63 1.602-1.45.001-.82-.629-1.6-1.453-1.6-.824 0-1.6.63-1.601 1.45Z"/>
    <path fill="#A1914B" d="M214.378 775.066c.824.001 1.6-.629 1.601-1.454.001-.825-.628-1.601-1.452-1.602-.825 0-1.601.63-1.602 1.454-.195.776.629 1.601 1.453 1.602Z"/>
    <path fill="#E2D35B" d="M420.971 1079.3c-.776-.19-1.405-.97-1.162-1.94.195-.78.972-1.41 1.941-1.16.775.19 1.405.97 1.161 1.94-.194.77-.971 1.4-1.94 1.16Z"/>
    <path fill="#E7DDBB" d="M246.586 803.562c-.775-.194-1.405-.971-1.161-1.941.194-.776.971-1.406 1.94-1.163.775.195 1.405.972 1.162 1.942-.195.776-1.165 1.357-1.941 1.162Z"/>
    <path fill="#E9E3BD" d="M670.103 241.752a1.567 1.567 0 0 0 2.132.535 1.57 1.57 0 0 0 .536-2.134 1.568 1.568 0 0 0-2.133-.535 1.57 1.57 0 0 0-.535 2.134Z"/>
    <path fill="#E2D35B" d="M737.15 568.292c-.678-.582-.822-1.649-.24-2.328.583-.679 1.649-.823 2.327-.241.678.583.823 1.65.24 2.329-.582.678-1.649.823-2.327.24Z"/>
    <path fill="#8F6E3F" d="M782.895 168.4c-.389.727-1.455.872-2.182.483-.727-.388-.871-1.456-.483-2.183.389-.727 1.456-.872 2.182-.483.727.388 1.065 1.504.483 2.183Z"/>
    <path fill="#DDBB59" d="M899.046 732.022c-.582.679-1.6.63-2.278.047-.679-.582-.629-1.601-.047-2.28.583-.678 1.601-.629 2.279-.046.629.776.58 1.795.046 2.279Z"/>
    <path fill="#705618" d="M931.899 746.454c-.389.727-1.455.872-2.182.483-.727-.388-.871-1.455-.483-2.183.389-.727 1.456-.872 2.183-.483.92.437 1.065 1.504.482 2.183Z"/>
    <path fill="#AFA54E" d="M936.238 723.416c-.388.728-1.455.872-2.182.484-.726-.389-.871-1.456-.482-2.183.388-.728 1.455-.872 2.182-.484.727.389.871 1.456.482 2.183Z"/>
    <path fill="#C8B855" d="M873.931 782.013c.001-.824-.629-1.601-1.404-1.796-.825 0-1.601.63-1.796 1.406 0 .824.629 1.601 1.404 1.795.825.001 1.601-.629 1.796-1.405Z"/>
    <path fill="#DCB449" d="M922.65 737.328c-.824-.001-1.601.629-1.795 1.405-.001.825.628 1.601 1.404 1.796.824 0 1.6-.63 1.795-1.405.001-.825-.629-1.602-1.404-1.796Z"/>
    <path fill="#E2DA86" d="M911.49 700.504c-.825-.001-1.601.629-1.796 1.405 0 .824.629 1.601 1.404 1.796.825 0 1.601-.63 1.796-1.406.049-1.018-.629-1.601-1.404-1.795Z"/>
    <path fill="#E9E3BD" d="M922.226 724.231c-.824 0-1.6.629-1.795 1.405-.001.825.629 1.602 1.404 1.796.824.001 1.601-.629 1.795-1.405.244-.97-.58-1.795-1.404-1.796Z"/>
    <path fill="#C4922F" d="M900.782 787.514c.001-.824-.629-1.601-1.453-1.601-.824-.001-1.6.629-1.601 1.454-.001.824.629 1.601 1.453 1.601.824.001 1.6-.629 1.601-1.454Z"/>
    <path fill="#fff" d="M904.731 765.205c.001-.825-.628-1.601-1.452-1.602-.825-.001-1.601.629-1.602 1.454-.001.825.629 1.601 1.453 1.602.775.194 1.552-.436 1.601-1.454ZM586.182 1085.29c-.873.2-1.311 1.12-1.118 1.99.193.88 1.114 1.31 1.987 1.12.873-.19 1.31-1.11 1.117-1.99-.193-.87-1.114-1.31-1.986-1.12Z"/>
    <path fill="#E7DDBB" d="M662.187 256.055c.776.195 1.405.971 1.162 1.941-.195.776-.971 1.406-1.941 1.163-.775-.195-1.404-.971-1.161-1.941.243-.97.971-1.406 1.94-1.163Z"/>
    <path fill="#5F4012" d="M896.195 676.046a1.568 1.568 0 0 0-2.133-.535 1.57 1.57 0 0 0-.536 2.133 1.569 1.569 0 0 0 2.133.536 1.57 1.57 0 0 0 .536-2.134Z"/>
    <path fill="#DFC78B" d="M924.336 747.03c-.436-.728-1.454-.777-2.182-.341-.727.436-.777 1.454-.341 2.182.435.728 1.453.778 2.181.342s.777-1.455.342-2.183Z"/>
    <path fill="#9F6122" d="M910.888 766.131c-.435-.728-1.453-.778-2.181-.342s-.777 1.455-.342 2.183c.436.728 1.454.777 2.182.341.727-.436.777-1.454.341-2.182Z"/>
    <path fill="#C17E30" d="M919.028 768.999c.195-.776 1.165-1.357 1.941-1.163.775.195 1.356 1.166 1.161 1.941-.195.776-1.165 1.358-1.94 1.163-.97-.243-1.356-1.165-1.162-1.941Z"/>
    <path fill="#A28726" d="M921.124 759.009c.195-.776 1.165-1.357 1.94-1.163.776.195 1.357 1.165 1.162 1.941-.195.776-1.165 1.358-1.941 1.163-.775-.195-1.404-.971-1.161-1.941Z"/>
    <path fill="#fff" d="M735.085 735.829c.873-.194 1.455-.872 1.262-1.746-.193-.873-.871-1.455-1.744-1.262-.872.193-1.455.872-1.262 1.745-.001.825.871 1.456 1.744 1.263Z"/>
    <path fill="#5F4012" d="M585.276 463.988a1.568 1.568 0 0 0 2.133.535 1.568 1.568 0 0 0 .535-2.133 1.567 1.567 0 0 0-2.132-.536 1.57 1.57 0 0 0-.536 2.134Z"/>
    <path fill="#E4D49C" d="M751.482 212.273a1.567 1.567 0 0 0 2.132.535 1.57 1.57 0 0 0 .536-2.133 1.569 1.569 0 0 0-2.133-.536 1.57 1.57 0 0 0-.535 2.134Z"/>
    <path fill="#DFC78B" d="M745.432 250.346c.435.728 1.453.777 2.181.341s.777-1.454.342-2.182c-.436-.728-1.454-.778-2.182-.342-.727.436-.971 1.406-.341 2.183Z"/>
    <path fill="#E8E2A4" d="M657.768 217.005c.435.728 1.453.777 2.181.341s.777-1.454.342-2.182c-.436-.728-1.454-.777-2.182-.341-.727.436-.777 1.454-.341 2.182Z"/>
    <path fill="#9F6122" d="M763.307 263.698c.435.728 1.453.778 2.181.342s.777-1.455.342-2.183c-.436-.728-1.454-.777-2.182-.341-.727.436-.971 1.406-.341 2.182Z"/>
    <path fill="#C17E30" d="M755.116 261.025c-.194.775-1.165 1.357-1.94 1.162-.776-.194-1.356-1.165-1.162-1.941.195-.776 1.165-1.357 1.941-1.163.775.195 1.405.972 1.161 1.942Z"/>
    <path fill="#D5A25F" d="M606.579 211.582c-.194.776-1.165 1.357-1.94 1.163-.776-.195-1.356-1.165-1.162-1.941.195-.776 1.165-1.358 1.941-1.163.775.195 1.405.971 1.161 1.941Z"/>
    <path fill="#E4D49C" d="M731.273 672.186c-.727-.388-1.162-1.116-.919-2.086.389-.727 1.116-1.163 2.086-.92.727.389 1.162 1.116.919 2.086-.195.776-1.117 1.164-2.086.92Z"/>
    <path fill="#D5A25F" d="M705.386 252.256c-.726-.389-1.162-1.117-.918-2.087.388-.727 1.116-1.163 2.085-.92.727.389 1.162 1.117.919 2.087-.389.727-1.31 1.114-2.086.92Z"/>
    <path fill="#A28726" d="M748.45 238.318c-.194.776-1.165 1.358-1.94 1.163-.776-.194-1.356-1.165-1.162-1.941.195-.776 1.165-1.357 1.941-1.163.969.244 1.405.972 1.161 1.941Z"/>
    <path fill="#5F4012" d="M720.593 219.575a1.567 1.567 0 0 0 2.132.535 1.57 1.57 0 0 0 .536-2.134 1.57 1.57 0 0 0-2.133-.535c-.921.388-1.165 1.358-.535 2.134Z"/>
    <path fill="#E8E2A4" d="M695.959 225.765c.436.728 1.454.777 2.181.341.728-.436.778-1.455.342-2.182-.436-.728-1.454-.778-2.181-.342-.583.679-.826 1.649-.342 2.183Z"/>
    <path fill="#9F6122" d="M704.85 208.406c.435.728 1.453.778 2.181.342s.777-1.455.342-2.183c-.436-.728-1.454-.777-2.182-.341-.727.436-.971 1.406-.341 2.182Z"/>
    <path fill="#5F4012" d="M517.13 962.184a1.567 1.567 0 0 0 2.132.536 1.57 1.57 0 0 0 .536-2.134 1.568 1.568 0 0 0-2.133-.535 1.57 1.57 0 0 0-.535 2.133Z"/>
    <path fill="#E4D49C" d="M410.597 798.738a1.567 1.567 0 0 0 2.132.535 1.57 1.57 0 0 0 .536-2.133 1.569 1.569 0 0 0-2.133-.536c-.921.388-.971 1.406-.535 2.134Z"/>
    <path fill="#E9E3BD" d="M553.985 811.215a1.568 1.568 0 0 0 2.133.535 1.57 1.57 0 0 0 .535-2.134 1.567 1.567 0 0 0-2.132-.535c-.679.242-.971 1.406-.536 2.134Z"/>
    <path fill="#DFC78B" d="M463.697 783.402c.436.728 1.454.777 2.182.341.727-.436.777-1.455.341-2.183-.435-.728-1.453-.777-2.181-.341s-.777 1.455-.342 2.183Z"/>
    <path fill="#E8E2A4" d="M472.828 814.356c.436.728 1.454.777 2.182.341.727-.436.777-1.455.341-2.183-.435-.728-1.453-.777-2.181-.341s-.971 1.406-.342 2.183Z"/>
    <path fill="#9F6122" d="M481.572 796.754c.436.728 1.454.777 2.182.341.727-.436.777-1.454.341-2.182-.435-.728-1.453-.777-2.181-.341s-.971 1.406-.342 2.182Z"/>
    <path fill="#C17E30" d="M473.382 794.08c-.195.776-1.165 1.357-1.94 1.163-.776-.195-1.357-1.165-1.162-1.941.195-.776 1.165-1.357 1.941-1.163.969.243 1.404.971 1.161 1.941Z"/>
    <path fill="#A28726" d="M466.909 771.424c-.194.776-1.165 1.357-1.94 1.163-.775-.195-1.356-1.166-1.162-1.941.195-.776 1.165-1.358 1.941-1.163.775.194 1.405.971 1.161 1.941Z"/>
    <path fill="#E2D35B" d="M543.886 1478.01c-.726-.39-.871-1.45-.482-2.18.389-.73 1.455-.87 2.182-.49.727.39.871 1.46.483 2.19-.583.68-1.456.87-2.183.48Z"/>
    <path fill="#C8B855" d="M572.322 1453.39c-.727-.39-.871-1.45-.483-2.18.389-.73 1.456-.87 2.183-.48.726.38.871 1.45.482 2.18-.631.87-1.504 1.06-2.182.48Z"/>
    <path fill="#C4AE31" d="M543.043 1404.19c.388-.73 1.455-.88 2.182-.49.726.39.871 1.46.482 2.19-.388.72-1.455.87-2.182.48-.727-.39-.871-1.46-.482-2.18Z"/>
    <path fill="#A28726" d="M575.814 1357.35c.389-.72 1.455-.87 2.182-.48.727.39.871 1.46.483 2.18-.389.73-1.456.88-2.182.49-.679-.59-.872-1.46-.483-2.19Zm79.75-94.42c-.776-.2-1.697.19-2.086.92-.194.77.193 1.69.919 2.08.776.2 1.697-.19 2.086-.92.437-.92-.144-1.89-.919-2.08Z"/>
    <path fill="#B4762F" d="M707.234 1177.74c-.727-.39-.871-1.46-.482-2.18.388-.73 1.455-.88 2.182-.49.726.39.871 1.46.482 2.19-.388.72-1.261.92-2.182.48Z"/>
    <path fill="#B59D50" d="M579.513 1389.42c-.726-.39-.871-1.46-.482-2.18.388-.73 1.455-.88 2.182-.49.727.39.871 1.46.482 2.18-.388.73-1.455.88-2.182.49Z"/>
    <path fill="#E9E3BD" d="M596.052 1289.85a1.56 1.56 0 0 0 2.132.53c.728-.43.971-1.4.536-2.13a1.561 1.561 0 0 0-2.133-.53c-.921.38-.971 1.4-.535 2.13Z"/>
    <path fill="#DFC78B" d="M553.449 1372.57c.436.73 1.454.77 2.182.34.727-.44.777-1.46.341-2.18-.435-.73-1.453-.78-2.181-.34-.728.43-.971 1.4-.342 2.18Z"/>
    <path fill="#E8E2A4" d="M562.58 1403.52c.436.73 1.454.78 2.181.34.728-.43.778-1.45.342-2.18-.435-.73-1.453-.78-2.181-.34-.728.43-.971 1.4-.342 2.18Z"/>
    <path fill="#9F6122" d="M571.324 1385.92c.436.73 1.454.78 2.182.34.727-.43.777-1.45.341-2.18-.435-.73-1.453-.78-2.181-.34-.728.43-.971 1.4-.342 2.18Z"/>
    <path fill="#C17E30" d="M563.134 1383.25c-.195.77-1.165 1.35-1.94 1.16-.776-.2-1.357-1.17-1.162-1.94.195-.78 1.165-1.36 1.94-1.16.776.19 1.405.97 1.162 1.94Z"/>
    <path fill="#A28726" d="M556.661 1360.59c-.194.77-1.165 1.36-1.94 1.16-.776-.19-1.356-1.16-1.162-1.94.195-.78 1.165-1.36 1.941-1.16.775.19 1.405.97 1.161 1.94Z"/>
    <path fill="#DDBB59" d="M740.418 689.122c-.727-.389-1.163-1.117-.919-2.087.388-.727 1.116-1.163 2.085-.92.97.244 1.163 1.117.919 2.087-.243.97-1.165 1.357-2.085.92Z"/>
    <path fill="#A28726" d="M732.001 718.558c-.195.776-1.165 1.357-1.94 1.162-.776-.194-1.356-1.165-1.162-1.941.195-.776 1.165-1.357 1.941-1.162.969.243 1.356 1.165 1.161 1.941Z"/>
    <path fill="#DDB867" d="M700.205 245.8c.775.195 1.356 1.165 1.161 1.941-.194.776-1.165 1.358-1.94 1.163-.775-.195-1.356-1.165-1.161-1.941.194-.776 1.164-1.357 1.94-1.163Z"/>
    <path fill="#fff" d="M694.119 224.066a1.626 1.626 0 0 0-2.035-.923 1.628 1.628 0 0 0-.923 2.036 1.626 1.626 0 0 0 2.035.923c.679-.242 1.116-1.163.923-2.036Z"/>
    <path fill="#A28726" d="M688.965 239.68a1.626 1.626 0 0 0-2.035-.923 1.627 1.627 0 0 0-.923 2.036 1.626 1.626 0 0 0 2.035.924c.679-.242 1.116-1.164.923-2.037Z"/>
    <path fill="#B59D50" d="M702.111 230.814a1.626 1.626 0 0 0-2.035-.923 1.629 1.629 0 0 0-.923 2.037 1.626 1.626 0 0 0 2.035.923 1.628 1.628 0 0 0 .923-2.037Z"/>
    <path fill="#D5A25F" d="M555.523 1011.2c-.436-.72-.193-1.69.535-2.13a1.564 1.564 0 0 1 2.133.54c.435.72.192 1.69-.536 2.13-.728.44-1.697.19-2.132-.54Z"/>
    <path fill="#DDBB59" d="M592.651 1064.44c-.582.68-1.455.87-2.133.29-.679-.58-.872-1.45-.289-2.13.582-.68 1.455-.87 2.133-.29.727.39.871 1.45.289 2.13Z"/>
    <path fill="#E9E3BD" d="M317.88 821.661c-.195.776.192 1.697.919 2.086.775.195 1.696-.193 2.085-.92.195-.776-.192-1.698-.919-2.086-.775-.195-1.697.192-2.085.92Z"/>
    <path fill="#C8B855" d="M615.76 1032.3c0-.82-.871-1.46-1.696-1.46-.824 0-1.455.88-1.456 1.7-.001.83.871 1.46 1.695 1.46 1.019.05 1.65-.83 1.457-1.7Z"/>
    <path fill="#E9E3BD" d="M489.059 1009.16c-.726-.38-1.842-.04-2.037.73-.388.73-.05 1.84.725 2.04.727.39 1.843.05 2.037-.73.389-.72.002-1.65-.725-2.04Z"/>
    <path fill="#DDBB59" d="M631.632 1061.03c-.727-.39-1.843-.05-2.037.72-.389.73-.051 1.85.725 2.04.727.39 1.842.05 2.037-.72.388-.73.001-1.65-.725-2.04Z"/>
    <path fill="#6E4313" d="M346.723 823.331c-.726-.389-1.842-.05-2.037.726-.388.727-.05 1.843.726 2.038.726.388 1.842.05 2.036-.726.389-.727.002-1.649-.725-2.038Z"/>
    <path fill="#DCB449" d="M616.888 1065.58c-.824 0-1.455.87-1.456 1.69-.001.83.871 1.46 1.695 1.46.824 0 1.456-.87 1.456-1.7.001-.82-.871-1.45-1.695-1.45Z"/>
    <path fill="#E2DA86" d="M686.21 510.145c-.824-.001-1.601.629-1.602 1.453 0 .825.629 1.602 1.453 1.602.824.001 1.601-.629 1.602-1.454.146-.582-.484-1.358-1.453-1.601Zm36.965-23.304c-.824 0-1.601.63-1.601 1.454-.001.825.628 1.601 1.452 1.602.824.001 1.601-.629 1.602-1.454.001-.825-.629-1.601-1.453-1.602Z"/>
    <path fill="#E8E2A4" d="M351.975 808.977c-.726-.388-1.842-.049-2.037.726-.388.728-.05 1.844.726 2.038.726.389 1.842.05 2.036-.726.389-.727.002-1.649-.725-2.038Z"/>
    <path fill="#9F6122" d="M951.408 774.65c-.001.825.822 1.65 1.695 1.457.824 0 1.649-.824 1.456-1.697.001-.824-.822-1.65-1.695-1.456-.824-.001-1.649.823-1.456 1.696Z"/>
    <path fill="#5F4012" d="M749.476 603.759c-.001.824.823 1.649 1.695 1.456.825.001 1.65-.823 1.457-1.697-.193-.873-.823-1.649-1.696-1.456-.873.193-1.455.872-1.456 1.697Z"/>
    <path fill="#705618" d="M760.866 465.576c-.727.436-1.165 1.357-.729 2.085.436.728 1.356 1.165 2.084.729.728-.436 1.165-1.357.729-2.085-.241-.679-1.211-.923-2.084-.729Z"/>
    <path fill="#5F4012" d="M908.212 821.134c-.678-.582-1.745-.438-2.327.241-.583.679-.438 1.746.24 2.328.678.583 1.744.438 2.327-.24.582-.679.438-1.746-.24-2.329Z"/>
    <path fill="#DAAC4F" d="M920.948 787.627c-.727.436-1.164 1.357-.729 2.085.436.728 1.356 1.165 2.084.729.728-.436 1.165-1.357.729-2.085-.241-.68-1.211-.923-2.084-.729Z"/>
    <path fill="#6C4B15" d="M953.034 794.441c-.727.436-1.165 1.357-.729 2.085.436.728 1.356 1.165 2.084.729.728-.436 1.165-1.357.729-2.085-.241-.679-1.211-.922-2.084-.729Z"/>
    <path fill="#A28726" d="M578.187 1034.21c.001-.82-.871-1.45-1.695-1.45-.824-.01-1.456.87-1.456 1.69-.001.83.871 1.46 1.695 1.46.824 0 1.455-.87 1.456-1.7ZM323.52 806.579c-.727-.389-1.842-.05-2.037.726-.388.727-.05 1.843.725 2.038.727.388 1.843.05 2.037-.726.34-.534.002-1.649-.725-2.038Zm-16 .522c-.727-.389-1.842-.05-2.037.726-.388.727-.05 1.843.725 2.037.727.389 1.843.05 2.037-.726.389-.727.002-1.649-.725-2.037Z"/>
    <path fill="#E9E3BD" d="M466.383 1044.51c-.726-.39-1.842-.05-2.036.72-.389.73-.051 1.85.725 2.04.726.39 1.842.05 2.037-.72.388-.73.001-1.65-.726-2.04Z"/>
    <path fill="#E1D668" d="M669.184 613.303c-.727-.389-1.842-.05-2.037.726-.388.727-.05 1.843.725 2.037.727.389 1.843.05 2.037-.726.389-.727.002-1.649-.725-2.037Z"/>
    <path fill="#CCB253" d="M332.753 785.389c-.726-.389-1.842-.05-2.036.726-.389.727-.051 1.843.725 2.038.726.388 1.842.049 2.037-.726.388-.728.195-1.601-.726-2.038Z"/>
    <path fill="#DFC78B" d="M357.693 765.666c.727-.436 1.165-1.357.729-2.085-.435-.728-1.356-1.165-2.084-.729-.727.436-1.165 1.357-.729 2.085.387.922 1.356 1.165 2.084.729Z"/>
    <path fill="#E1DC7C" d="M249.533 813.994c.727-.436 1.164-1.358.729-2.086-.436-.727-1.356-1.165-2.084-.729-.728.436-1.165 1.358-.729 2.085.387.922 1.356 1.166 2.084.73Z"/>
    <path fill="#D5A25F" d="M273.61 784.569c-.389.727-1.456.872-2.183.483-.726-.388-.871-1.456-.482-2.183.389-.727 1.455-.872 2.182-.483.678.582.871 1.455.483 2.183Z"/>
    <path fill="#DAAC4F" d="M196.552 1087.52c.195-.77-.386-1.74-1.162-1.94-.775-.19-1.745.39-1.94 1.17-.195.77.386 1.74 1.161 1.94.776.19 1.746-.39 1.941-1.17Z"/>
    <path fill="#E6DD81" d="M173.129 1093.81c-.193-.87-1.065-1.5-1.938-1.31-.873.19-1.504 1.07-1.311 1.94.193.87 1.065 1.5 1.938 1.31.921-.39 1.504-1.06 1.311-1.94Z"/>
    <path fill="#DAAC4F" d="M82.162 1300.28c.582-.68 1.65-.82 2.327-.24.678.58.823 1.65.24 2.33-.582.68-1.649.82-2.327.24-.678-.58-.629-1.6-.24-2.33Z"/>
    <path fill="#A28726" d="M208.656 1054.89c.583-.68 1.649-.82 2.327-.24.679.58.823 1.65.24 2.33-.582.67-1.649.82-2.327.24-.678-.59-.822-1.65-.24-2.33Z"/>
    <path fill="#C4922F" d="M218.874 1065.91c-.195.77.386 1.74 1.162 1.94.775.19 1.745-.39 1.94-1.16.195-.78-.386-1.75-1.161-1.95-.921-.43-1.697.2-1.941 1.17Z"/>
    <path fill="#AA8C25" d="M197.034 1043.72c-.195.78.386 1.75 1.161 1.94.776.2 1.746-.38 1.941-1.16.195-.77-.386-1.74-1.162-1.94-.775-.19-1.697.19-1.94 1.16Z"/>
    <path fill="#fff" d="M191.214 1092.37c-.195.78.386 1.75 1.161 1.94.776.2 1.746-.39 1.941-1.16.194-.78-.386-1.75-1.162-1.94-.969-.25-1.939.34-1.94 1.16Z"/>
    <path fill="#E6DBBD" d="M192.503 1111.87c-.678-.58-.629-1.6.148-2.23.582-.68 1.6-.63 2.23.15.678.58.628 1.6-.148 2.23-.777.63-1.794.58-2.23-.15Z"/>
    <path fill="#DBCB75" d="M146.045 1173c.728-.43 1.746-.39 2.181.34.436.73.386 1.75-.342 2.18-.727.44-1.745.39-2.181-.34-.484-.53-.434-1.55.342-2.18Z"/>
    <path fill="#E2D35B" d="M171.285 1143.04c.728-.43 1.746-.38 2.181.34.436.73.386 1.75-.341 2.19-.728.43-1.746.38-2.181-.34-.485-.54-.435-1.56.341-2.19Z"/>
    <path fill="#E7DDBB" d="M172.479 1253.25c.727-.44 1.745-.39 2.181.34.435.73.386 1.75-.342 2.18-.728.44-1.746.39-2.181-.34-.436-.73-.386-1.75.342-2.18Z"/>
    <path fill="#E1DC7C" d="M63.186 1273.25c-.583.68-1.6.63-2.23-.15-.678-.58-.629-1.6.147-2.23.583-.68 1.6-.63 2.23.15.485.53.435 1.55-.147 2.23Z"/>
    <path fill="#E2D35B" d="M182.561 1113.71c-.678-.59-.628-1.61.148-2.24.583-.67 1.601-.62 2.23.15.678.58.629 1.6-.148 2.23-.533.49-1.551.44-2.23-.14Z"/>
    <path fill="#7E6B1D" d="M176 1130c.728-.44 1.746-.39 2.181.34.436.73.386 1.75-.341 2.18-.728.44-1.746.39-2.182-.34-.484-.53-.434-1.55.342-2.18Z"/>
    <path fill="#DDBB59" d="M156.107 1146.86c.728-.43 1.746-.38 2.182.34.435.73.386 1.75-.342 2.19-.728.43-1.746.38-2.181-.34-.436-.73-.386-1.75.341-2.19Z"/>
    <path fill="#D8AD78" d="M92.268 1139.3c.727-.44 1.745-.39 2.18.34.436.73.387 1.75-.34 2.18-.729.44-1.746.39-2.182-.34-.484-.53-.24-1.5.342-2.18Z"/>
    <path fill="#B4762F" d="M144.141 1139.53c-.583.68-1.601.63-2.23-.15-.678-.58-.629-1.6.147-2.23.583-.68 1.601-.63 2.23.15.485.53.629 1.6-.147 2.23Z"/>
    <path fill="#D8AD78" d="M58.419 1335.77c-.678-.58-.629-1.6.148-2.23.582-.68 1.6-.63 2.23.14.678.59.628 1.6-.148 2.23-.583.68-1.6.63-2.23-.14Zm-4.639-16.01c-.678-.58-.628-1.6.148-2.23.776-.63 1.6-.63 2.23.14.678.59.628 1.6-.148 2.23-.534.49-1.552.44-2.23-.14Z"/>
    <path fill="#E6DBBD" d="M161.394 1097.05c-.679-.58-.629-1.6.147-2.23.583-.68 1.601-.63 2.23.15.678.58.629 1.6-.148 2.23-.533.48-1.551.44-2.229-.15Z"/>
    <path fill="#E7DDBB" d="M180.515 984.728c-.678-.582-.629-1.601.147-2.231.583-.678 1.601-.629 2.23.147.678.583.629 1.602-.147 2.232-.777.63-1.795.58-2.23-.148Z"/>
    <path fill="#E9E3BD" d="M175.289 1114.77c-.776-.2-1.746.38-1.94 1.16-.195.78.386 1.75 1.161 1.94.776.2 1.746-.38 1.94-1.16.195-.78-.386-1.75-1.161-1.94Z"/>
    <path fill="#C8B855" d="M146.273 1140.07c.776.19 1.697-.2 2.086-.92.194-.78-.193-1.7-.919-2.09-.776-.19-1.697.19-2.086.92-.195.78.192 1.7.919 2.09Z"/>
    <path fill="#E2DA86" d="M153.995 1125.71c.195-.77-.192-1.69-.919-2.08-.775-.2-1.697.19-2.085.92-.195.77.192 1.7.919 2.08.969.25 1.891-.14 2.085-.92Z"/>
    <path fill="#A28726" d="M160.078 1104.76c.775.2 1.697-.19 2.085-.92.195-.77-.192-1.69-.919-2.08-.775-.2-1.696.19-2.085.92-.437.92-.05 1.84.919 2.08Z"/>
    <path fill="#C4922F" d="M84.624 1263.37c.195-.78-.192-1.7-.919-2.09-.775-.19-1.697.2-2.085.92-.195.78.192 1.7.919 2.09.727.39 1.648 0 2.085-.92Z"/>
    <path fill="#CCB253" d="M164.952 1125.58c.195-.78-.192-1.7-.919-2.09-.775-.19-1.696.19-2.085.92-.195.78.192 1.7.919 2.09.921.43 1.842.05 2.085-.92Z"/>
    <path fill="#C4922F" d="M80.66 1299.7c.775.19 1.697-.2 2.085-.92.195-.78-.192-1.7-.919-2.09-.775-.19-1.697.19-2.085.92-.243.97.143 1.89.919 2.09Z"/>
    <path fill="#C8B855" d="M76.54 1344.03c.776.19 1.698-.2 2.086-.92.195-.78-.192-1.7-.919-2.09-.775-.19-1.697.19-2.085.92-.438.92.143 1.89.919 2.09Z"/>
    <path fill="#D8AD78" d="M79.235 1176.44c-.678-.58-.628-1.6.148-2.23.583-.68 1.6-.63 2.23.15.678.58.629 1.6-.148 2.23-.776.63-1.552.44-2.23-.15Z"/>
    <path fill="#A1914B" d="M70.462 1362.5c.195-.77-.192-1.7-.919-2.08-.775-.2-1.697.19-2.085.92-.195.77.192 1.69.919 2.08.775.2 1.697-.19 2.085-.92Z"/>
    <path fill="#E7DDBB" d="M166.527 1148.04c-.388.72-1.31 1.11-2.037.72-.726-.39-1.113-1.31-.725-2.04.389-.72 1.31-1.11 2.037-.72.97.24 1.114 1.31.725 2.04Z"/>
    <path fill="#E9E3BD" d="M201.936 1083.31c.679.58 1.794.24 2.183-.49.582-.67.244-1.79-.483-2.18-.678-.58-1.793-.24-2.182.48-.389.73-.244 1.8.482 2.19Z"/>
    <path fill="#6E4313" d="M210.643 1056.01c-.582.67-.438 1.74.046 2.28.678.58 1.745.43 2.327-.25.583-.67.438-1.74-.24-2.32-.678-.59-1.551-.39-2.133.29Z"/>
    <path fill="#E8E2A4" d="M198.193 1047.31c-.582.68-.438 1.75.24 2.33.678.59 1.745.44 2.327-.24.583-.68.439-1.74-.239-2.33-.679-.58-1.745-.43-2.328.24Z"/>
    <path fill="#A28726" d="M188.761 1074.23c-.583.68-.438 1.74.24 2.33.678.58 1.745.43 2.327-.24.582-.68.438-1.75-.24-2.33-.727-.39-1.745-.44-2.327.24Zm-3.508 15.61c-.583.68-.438 1.75.24 2.33.678.58 1.745.44 2.278-.04.534-.49.439-1.75-.239-2.33-.679-.59-1.697-.63-2.279.04Z"/>
    <path fill="#CCB253" d="M114.005 1260.43c-.583.68-.438 1.75.24 2.33.678.58 1.744.44 2.278-.05.583-.67.438-1.74-.046-2.28-.823-.82-1.89-.68-2.472 0Z"/>
    <path fill="#DFC78B" d="M119.89 916.727c-.193-.873-1.065-1.505-1.937-1.311-.873.193-1.504 1.066-1.311 1.939.193.873 1.065 1.504 1.937 1.311.922-.387 1.504-1.066 1.311-1.939Z"/>
    <path fill="#E1DC7C" d="M177.533 1147.7c-.193-.87-1.065-1.5-1.938-1.31-.873.2-1.504 1.07-1.311 1.94.193.88 1.065 1.51 1.938 1.31.873-.19 1.504-1.06 1.311-1.94Z"/>
    <path fill="#D5A25F" d="M155.12 1117.13c.678.58.628 1.6-.148 2.23-.582.68-1.6.63-2.23-.15-.678-.58-.628-1.6.148-2.23.534-.48 1.552-.43 2.23.15Z"/>
    <path fill="#DDB867" d="M375.571 820.879c.389-.727 1.31-1.114 2.037-.726.727.389 1.114 1.311.725 2.038-.388.727-1.31 1.115-2.037.726-.969-.243-1.162-1.116-.725-2.038Z"/>
    <path fill="#DAAC4F" d="M260.478 1336.99c-.436-.73-1.356-1.17-2.084-.73-.728.43-1.165 1.35-.729 2.08.435.73 1.356 1.17 2.083.73.922-.39 1.165-1.36.73-2.08Z"/>
    <path fill="#E6DD81" d="M245.963 1356.23c-.678-.58-1.696-.63-2.279.05-.582.68-.632 1.7.046 2.28.679.58 1.697.63 2.279-.05.582-.68.632-1.69-.046-2.28Z"/>
    <path fill="#8F6E3F" d="M190.501 1265.19c.001-.82.778-1.45 1.602-1.45.824 0 1.453.78 1.452 1.6 0 .83-.777 1.46-1.601 1.46-.63.04-1.453-.78-1.453-1.61Z"/>
    <path fill="#DAAC4F" d="M212.794 1270.79c.001-.83.777-1.46 1.602-1.45.824 0 1.453.77 1.452 1.6-.001.82-.777 1.45-1.601 1.45s-1.454-.78-1.453-1.6Z"/>
    <path fill="#A28726" d="M250.236 1303.9c.001-.83.777-1.46 1.601-1.46.824.01 1.454.78 1.453 1.61-.001.82-.777 1.45-1.602 1.45-.824 0-1.453-.78-1.452-1.6Z"/>
    <path fill="#C4922F" d="M264.921 1306.14c.436.73 1.357 1.17 2.084.73.728-.44 1.165-1.36.73-2.09-.436-.72-1.357-1.16-2.084-.72-.728.43-1.165 1.35-.73 2.08Z"/>
    <path fill="#AA8C25" d="M234.191 1302.14c.435.73 1.356 1.17 2.084.73.727-.44 1.165-1.36.729-2.09-.435-.72-1.356-1.16-2.084-.72-.873.19-1.116 1.16-.729 2.08Z"/>
    <path fill="#fff" d="M259.308 1344.12c.436.72 1.356 1.16 2.084.73.728-.44 1.165-1.36.729-2.09-.435-.73-1.356-1.17-2.084-.73-.727.44-1.164 1.36-.729 2.09Z"/>
    <path fill="#E6DBBD" d="M272.334 1358.73c-.776-.2-1.405-.97-1.404-1.8.195-.78.971-1.41 1.795-1.4.775.19 1.405.97 1.404 1.79-.049 1.02-1.02 1.6-1.795 1.41Z"/>
    <path fill="#D5A25F" d="M161.357 1271.28c.873-.19 1.745.44 1.744 1.27.193.87-.438 1.74-1.262 1.74-.873.2-1.745-.44-1.744-1.26-.193-.87.438-1.75 1.262-1.75Z"/>
    <path fill="#E1DC7C" d="M266.04 1396.12c-.195.77-.971 1.4-1.795 1.4s-1.405-.97-1.404-1.79c.195-.78.971-1.41 1.795-1.41.969.25 1.599 1.02 1.404 1.8Z"/>
    <path fill="#E2D35B" d="M265.733 1366.14c-.775-.19-1.405-.97-1.404-1.79.195-.78.971-1.41 1.795-1.41.776.2 1.405.97 1.404 1.8-.243.97-1.019 1.6-1.795 1.4Z"/>
    <path fill="#7E6B1D" d="M270.515 1383.22c.194-.78 1.164-1.36 1.94-1.16.775.19 1.356 1.16 1.161 1.94-.194.77-1.165 1.36-1.94 1.16-.969-.24-1.356-1.16-1.161-1.94Z"/>
    <path fill="#E6DBBD" d="M238.729 1366.17c-.775-.19-1.405-.97-1.404-1.8.195-.77.971-1.4 1.795-1.4.776.19 1.405.97 1.404 1.8-.243.97-.971 1.4-1.795 1.4Z"/>
    <path fill="#E7DDBB" d="M233.7 1354.19c-.776-.2-1.405-.97-1.404-1.8.195-.78.971-1.41 1.795-1.4.776.19 1.405.97 1.404 1.79-.001.83-.777 1.46-1.795 1.41Z"/>
    <path fill="#E9E3BD" d="M260.442 1371.62c-.728.44-1.165 1.36-.73 2.08.436.73 1.357 1.17 2.084.73.728-.43 1.165-1.35.73-2.08-.242-.68-1.163-1.12-2.084-.73Z"/>
    <path fill="#E2DA86" d="M278.487 1407.28c-.193-.87-1.113-1.31-2.035-.92-.873.19-1.31 1.12-.923 2.04.193.87 1.114 1.31 2.035.92.873-.19 1.31-1.11.923-2.04Z"/>
    <path fill="#A28726" d="M242.359 1373.06c.873-.19 1.31-1.11.923-2.04-.193-.87-1.113-1.31-2.035-.92-.873.19-1.31 1.12-.923 2.04.242.68 1.162 1.11 2.035.92Z"/>
    <path fill="#C4922F" d="M236.626 1290.79c-.193-.87-1.114-1.31-2.035-.92-.873.19-1.311 1.11-.924 2.04.193.87 1.114 1.31 2.036.92.727-.44 1.164-1.36.923-2.04Z"/>
    <path fill="#CCB253" d="M258.972 1386.51c-.193-.87-1.114-1.31-2.035-.92-.873.19-1.311 1.11-.924 2.03.193.88 1.114 1.31 2.036.93.921-.39 1.358-1.31.923-2.04Z"/>
    <path fill="#C4922F" d="M269.931 1430.71c.873-.2 1.31-1.12.924-2.04-.194-.87-1.114-1.31-2.036-.92-.872.19-1.31 1.11-.923 2.03.193.88 1.114 1.31 2.035.93Z"/>
    <path fill="#E4D49C" d="M221.107 1296.79c.582-.67.438-1.74-.483-2.18-.678-.58-1.745-.44-2.182.48-.582.68-.438 1.75.482 2.19.727.39 1.6.19 2.183-.49Z"/>
    <path fill="#E9E3BD" d="M262.328 1330.44c.824 0 1.649-.82 1.456-1.7.001-.82-.823-1.65-1.695-1.45-.825 0-1.65.82-1.457 1.69.193.88.871 1.46 1.696 1.46Z"/>
    <path fill="#6E4313" d="M252.417 1303.42c0 .82.629 1.6 1.453 1.6.824 0 1.601-.63 1.601-1.46.001-.82-.628-1.6-1.452-1.6-.776-.19-1.601.63-1.602 1.46Z"/>
    <path fill="#E8E2A4" d="M275.001 1449.92c0 .82.629 1.6 1.453 1.6.824 0 1.601-.63 1.601-1.45.001-.83-.628-1.61-1.452-1.61s-1.552.44-1.602 1.46Z"/>
    <path fill="#A28726" d="M246.425 1331.4c-.001.82.629 1.6 1.453 1.6.824 0 1.6-.63 1.601-1.45.001-.83-.628-1.61-1.452-1.61-.776-.19-1.552.44-1.602 1.46Zm6.676 14.46c-.001.82.629 1.6 1.453 1.6.824 0 1.6-.63 1.601-1.45.001-.83-.629-1.61-1.453-1.61-.775-.19-1.551.44-1.601 1.46Z"/>
    <path fill="#CCB253" d="M223.204 1331.14c0 .82.629 1.6 1.453 1.6.824 0 1.601-.63 1.602-1.45 0-.83-.629-1.61-1.453-1.61-.824 0-1.601.63-1.602 1.46Z"/>
    <path fill="#DFC78B" d="M195.248 1316.08c-.678-.58-1.696-.63-2.279.05-.582.68-.632 1.69.046 2.28.679.58 1.697.63 2.279-.05.776-.63.632-1.7-.046-2.28Z"/>
    <path fill="#D5A25F" d="M245.933 1385.92c.775.19 1.405.97 1.404 1.79-.195.78-.971 1.41-1.795 1.41-.776-.2-1.405-.97-1.404-1.8.243-.97 1.019-1.6 1.795-1.4Z"/>
    <path fill="#DDB867" d="M238.821 1277.94c-.824 0-1.453-.78-1.452-1.6 0-.83.777-1.46 1.601-1.46s1.453.78 1.453 1.61c-.001.82-.778 1.45-1.602 1.45Z"/>
    <path fill="#C4AE31" d="M606.616 454.497c.389-.727 1.31-1.114 2.037-.726.727.389 1.114 1.311.725 2.038-.388.727-1.31 1.115-2.037.726-.775-.194-1.113-1.31-.725-2.038Z"/>
    <path fill="#DFC78B" d="M746.285 176.328c.727-.436 1.164-1.358.729-2.086-.436-.728-1.356-1.165-2.084-.729-.728.436-1.165 1.358-.729 2.085.241.68 1.162 1.117 2.084.73Z"/>
    <path fill="#D5A25F" d="M717.448 167.235c.727.389 1.114 1.311.725 2.038-.389.727-1.31 1.115-2.037.726-.727-.388-1.114-1.31-.725-2.038.195-.776 1.116-1.163 2.037-.726Z"/>
    <path fill="#DDBB59" d="M689.033 732.108c-.388.727-1.455.872-2.182.483-.726-.388-.871-1.456-.482-2.183.388-.727 1.455-.872 2.182-.483.678.582.871 1.455.482 2.183Z"/>
    <path fill="#DFC78B" d="M511.681 886.998c.728-.436 1.165-1.358.729-2.086-.435-.728-1.356-1.165-2.083-.729-.728.436-1.165 1.357-.73 2.085.242.68 1.163 1.117 2.084.73Z"/>
    <path fill="#E1DC7C" d="M833.911 291.108c.728-.436 1.165-1.357.73-2.085-.436-.728-1.356-1.165-2.084-.729-.728.436-1.165 1.357-.729 2.085.241.679 1.162 1.116 2.083.729Z"/>
    <path fill="#E8E2A4" d="M719.117 193.429c-.388.727-1.455.872-2.182.483-.726-.388-.871-1.455-.482-2.183.388-.727 1.455-.872 2.182-.483.727.389.871 1.456.482 2.183Z"/>
    <path fill="#E2D35B" d="M731.503 217.158c.388-.728 1.31-1.115 2.037-.726.727.388 1.113 1.31.725 2.037-.389.728-1.31 1.115-2.037.726-.727-.388-1.114-1.31-.725-2.037Z"/>
    <path fill="#A28726" d="M711.29 215.59c.727.388 1.113 1.31.725 2.038-.389.727-1.31 1.114-2.037.726-.727-.389-1.114-1.311-.725-2.038.195-.776 1.31-1.115 2.037-.726Z"/>
    <path fill="#D5A25F" d="M767.552 236.927c.726.388 1.113 1.31.725 2.037-.389.728-1.311 1.115-2.037.727-.727-.389-1.114-1.311-.725-2.038.194-.776 1.116-1.164 2.037-.726Z"/>
    <path fill="#8F6E3F" d="M396.739 1025.59c.727.39 1.114 1.31.725 2.04-.389.72-1.31 1.11-2.037.72-.727-.39-1.114-1.31-.725-2.04.195-.77 1.116-1.16 2.037-.72Z"/>
    <path fill="#E4D49C" d="M749.975 263.446c-.389.727-1.455.872-2.182.483-.727-.389-.871-1.456-.483-2.183.389-.727 1.456-.872 2.182-.483.727.388.871 1.455.483 2.183Z"/>
    <path fill="#D5A25F" d="M744.725 230.167c-.389.728-1.456.872-2.182.484-.727-.389-.871-1.456-.483-2.183.389-.728 1.455-.872 2.182-.484.727.389.871 1.456.483 2.183Z"/>
    <path fill="#A28726" d="M623.661 241.232c.727.389 1.113 1.311.725 2.038-.389.727-1.31 1.115-2.037.726-.727-.388-1.114-1.31-.725-2.038.389-.727 1.31-1.114 2.037-.726Z"/>
    <path fill="#AFA54E" d="M622.282 262.331c.777-.63 1.552-.435 2.23.147.63.777.435 1.553-.147 2.232-.777.63-1.552.435-2.23-.148-.436-.728-.435-1.552.147-2.231Z"/>
    <path fill="#DDBB59" d="M768.5 257.785c-.388.727-1.455.872-2.182.483-.727-.389-.871-1.456-.482-2.183.388-.727 1.455-.872 2.182-.484.678.583.871 1.456.482 2.184Zm-33.378-117.457c.678.582.823 1.649.24 2.328-.582.679-1.649.823-2.327.241-.678-.583-.823-1.65-.24-2.329.582-.678 1.649-.823 2.327-.24Z"/>
    <path fill="#A28726" d="M405.676 1008.86c.727.39 1.114 1.31.726 2.04-.389.73-1.311 1.11-2.037.72-.727-.38-1.114-1.31-.725-2.03.388-.73 1.31-1.12 2.036-.73Z"/>
    <path fill="#DDB867" d="M737.401 233.896c.389-.727 1.31-1.115 2.037-.726.727.388 1.114 1.31.725 2.038-.388.727-1.31 1.114-2.037.726-.775-.195-1.162-1.117-.725-2.038Z"/>
    <path fill="#705618" d="M716.61 227.235c.727.389 1.114 1.311.725 2.038-.388.727-1.31 1.115-2.037.726-.727-.388-1.113-1.31-.725-2.038.195-.776 1.116-1.163 2.037-.726Z"/>
    <path fill="#DCB449" d="M708.843 237.658c-.001.825.823 1.65 1.696 1.457.824 0 1.649-.824 1.456-1.697.001-.825-.823-1.65-1.696-1.457-.872.194-1.649.824-1.456 1.697Z"/>
  </g>
  <defs>
    <clipPath id="a">
      <path fill="#fff" d="M0 0h1425v980H0z" transform="rotate(104.088 555.655 625.279)"/>
    </clipPath>
  </defs>
</svg>
