<svg xmlns="http://www.w3.org/2000/svg" width="29" height="28" fill="none" viewBox="0 0 29 28">
  <path fill="url(#a)" d="M29 16.526v-1.058a1.52 1.52 0 0 0-.457-1.083 1.577 1.577 0 0 0-1.103-.45h-6.188a1.581 1.581 0 0 0-1.101.45 1.518 1.518 0 0 0-.457 1.082v1.058a1.504 1.504 0 0 0 .506 1.128 1.527 1.527 0 0 0-.508 1.129v1.058a1.505 1.505 0 0 0 .508 1.127 1.531 1.531 0 0 0-.507 1.129v1.058a1.505 1.505 0 0 0 .507 1.127 1.53 1.53 0 0 0-.507 1.128v1.059c0 .405.165.794.457 1.081.292.287.688.449 1.101.45h6.189c.413 0 .81-.162 1.102-.45.293-.286.457-.675.458-1.081v-1.059a1.506 1.506 0 0 0-.507-1.128A1.505 1.505 0 0 0 29 23.154v-1.058a1.505 1.505 0 0 0-.507-1.129A1.504 1.504 0 0 0 29 19.84v-1.058a1.505 1.505 0 0 0-.507-1.129A1.504 1.504 0 0 0 29 16.526Zm-.822 9.942a.719.719 0 0 1-.217.512.747.747 0 0 1-.521.212h-6.188a.746.746 0 0 1-.521-.212.718.718 0 0 1-.217-.512v-1.059a.72.72 0 0 1 .217-.512.746.746 0 0 1 .521-.212h6.188c.195 0 .383.077.521.212.139.136.217.32.217.512v1.059Zm-.738-2.59h-6.194a.748.748 0 0 1-.516-.215.72.72 0 0 1-.214-.509v-1.058c0-.192.078-.377.217-.512a.746.746 0 0 1 .521-.213h6.186c.195 0 .383.077.521.213.139.135.217.32.217.512v1.058a.72.72 0 0 1-.215.51.748.748 0 0 1-.517.214h-.006Zm0-3.313h-6.194a.748.748 0 0 1-.516-.216.72.72 0 0 1-.214-.509v-1.058a.72.72 0 0 1 .216-.512.746.746 0 0 1 .522-.212h6.186c.195 0 .383.076.521.212.139.136.217.32.217.512v1.058a.72.72 0 0 1-.215.51.748.748 0 0 1-.517.215h-.006Zm0-3.314h-6.2a.748.748 0 0 1-.514-.217.72.72 0 0 1-.213-.507v-1.059c0-.192.078-.376.217-.512a.746.746 0 0 1 .521-.212h6.188c.195 0 .383.076.521.212.139.136.217.32.217.512v1.058a.72.72 0 0 1-.215.51.748.748 0 0 1-.517.215h-.006Zm-16.657-5.813L.643 18.55a.417.417 0 0 1-.566-.098.398.398 0 0 1 .088-.558l10.14-7.112a1.782 1.782 0 0 1 2.296.202l2.245 2.269a.956.956 0 0 0 1.26.086l7.279-5.567-1.847-.195a.417.417 0 0 1-.284-.145.4.4 0 0 1 .209-.646.419.419 0 0 1 .162-.01l2.862.301a.417.417 0 0 1 .28.152.4.4 0 0 1 .085.302l-.398 2.987a.401.401 0 0 1-.137.251.416.416 0 0 1-.597-.057.399.399 0 0 1-.082-.298l.27-2.018-7.296 5.579a1.788 1.788 0 0 1-2.354-.16l-2.248-2.269a.953.953 0 0 0-1.227-.108Zm7.06 6.558-1.72-1.294a.416.416 0 0 0-.5 0l-1.718 1.293a.405.405 0 0 0-.16.32v9.28a.4.4 0 0 0 .12.286.415.415 0 0 0 .29.118h3.437a.415.415 0 0 0 .29-.118.4.4 0 0 0 .121-.285v-9.28a.397.397 0 0 0-.16-.32Zm-.66 9.196h-2.617v-8.677l1.307-.984 1.31.984v8.677Zm-5.13-10.58-1.718-1.293a.414.414 0 0 0-.5 0l-1.719 1.293a.404.404 0 0 0-.16.32v10.664a.4.4 0 0 0 .12.285.415.415 0 0 0 .29.118h3.437a.415.415 0 0 0 .29-.118.4.4 0 0 0 .121-.285V16.931a.397.397 0 0 0-.16-.32Zm-.66 10.58H8.776V17.131l1.31-.984 1.307.984-.002 10.061Zm-5.128-6.26-1.72-1.294a.416.416 0 0 0-.5 0l-1.718 1.294a.405.405 0 0 0-.16.32v6.345a.4.4 0 0 0 .12.285.415.415 0 0 0 .29.118h3.437a.415.415 0 0 0 .29-.118.4.4 0 0 0 .121-.285v-6.345a.397.397 0 0 0-.16-.32Zm-.662 6.26H2.988v-5.74l1.308-.984 1.307.984v5.74Zm9.457-17.43a5.032 5.032 0 0 0 3.156-1.109 4.865 4.865 0 0 0 1.723-2.82 4.801 4.801 0 0 0-.493-3.254A4.942 4.942 0 0 0 16.962.371a5.063 5.063 0 0 0-3.347-.16 4.968 4.968 0 0 0-2.692 1.96 4.81 4.81 0 0 0 .622 6.163c.462.453 1.01.813 1.613 1.058.603.245 1.25.37 1.902.37Zm-2.935-7.76A4.175 4.175 0 0 1 14.251.886a4.226 4.226 0 0 1 2.4.232c.758.308 1.407.83 1.863 1.5.457.67.7 1.458.7 2.264a4.02 4.02 0 0 1-.7 2.264 4.137 4.137 0 0 1-1.863 1.501 4.226 4.226 0 0 1-2.4.232 4.177 4.177 0 0 1-2.126-1.115 4.058 4.058 0 0 1-.904-1.321 3.996 3.996 0 0 1 0-3.121c.21-.494.517-.943.904-1.32Zm1.078 4.007a.397.397 0 0 1 .058-.298.418.418 0 0 1 .56-.126.404.404 0 0 1 .183.243c.145.619.808.82 1.401.744a.814.814 0 0 0 .395-.126.794.794 0 0 0 .278-.302.48.48 0 0 0-.106-.502 1.142 1.142 0 0 0-.845-.361 3.565 3.565 0 0 1-.716-.16l-.012-.005a1.431 1.431 0 0 1-.71-.495 1.388 1.388 0 0 1-.285-.807 1.43 1.43 0 0 1 .298-.81c.18-.233.43-.408.714-.5.086-.031.175-.057.265-.077v-.42a.4.4 0 0 1 .125-.278.415.415 0 0 1 .573 0 .4.4 0 0 1 .124.278v.41c.317.072.61.222.85.435.242.214.424.484.53.785a.399.399 0 0 1-.235.53.418.418 0 0 1-.45-.106.403.403 0 0 1-.084-.138 1.027 1.027 0 0 0-.555-.64 1.069 1.069 0 0 0-.856-.022.674.674 0 0 0-.325.212.653.653 0 0 0-.15.354c-.004.223.165.415.475.54.178.057.361.096.547.117a1.938 1.938 0 0 1 1.354.643 1.282 1.282 0 0 1 .24 1.312c-.116.26-.3.483-.535.648-.235.164-.51.263-.798.286h-.008v.385a.399.399 0 0 1-.25.383.418.418 0 0 1-.456-.09.404.404 0 0 1-.116-.293v-.409a1.827 1.827 0 0 1-.946-.45 1.773 1.773 0 0 1-.532-.89Z"/>
  <defs>
    <linearGradient id="a" x1="14.494" x2="14.494" y1=".001" y2="27.964" gradientUnits="userSpaceOnUse">
      <stop stop-color="#E5C23E"/>
      <stop offset=".33" stop-color="#FFEC87"/>
      <stop offset=".61" stop-color="#FFEB7A"/>
      <stop offset=".8" stop-color="#F6A338"/>
      <stop offset="1" stop-color="#E4B63E"/>
    </linearGradient>
  </defs>
</svg>
