<svg xmlns="http://www.w3.org/2000/svg" width="42" height="42" fill="none" viewBox="0 0 42 42">
  <g clip-path="url(#a)">
    <path fill="url(#b)" d="M40.588 39.362H2.723V1.389C2.723.666 2.132.074 1.41.074S.098.666.098 1.39v39.28c0 .723.59 1.315 1.312 1.315h39.187c.721 0 1.312-.592 1.312-1.315 0-.724-.59-1.307-1.32-1.307Z"/>
    <path fill="url(#c)" d="M7.219 30.676h1.829v5.17c0 .723.59 1.315 1.313 1.315.721 0 1.312-.592 1.312-1.315v-5.17h1.83c.721 0 1.312-.592 1.312-1.315V18.816c0-.723-.59-1.315-1.313-1.315h-1.829v-5.252c0-.724-.59-1.315-1.313-1.315-.721 0-1.312.591-1.312 1.315V17.5h-1.83c-.721 0-1.312.591-1.312 1.315V29.36c0 .732.583 1.315 1.313 1.315ZM8.53 20.131h3.65v7.915H8.53V20.13Z"/>
    <path fill="url(#d)" d="M19.154 19.825h1.83v5.17c0 .723.59 1.315 1.312 1.315.722 0 1.313-.592 1.313-1.315v-5.17h1.829c.722 0 1.312-.592 1.312-1.315V7.965c0-.724-.59-1.315-1.312-1.315h-1.83V1.39c0-.724-.59-1.316-1.312-1.316-.722 0-1.312.592-1.312 1.315v5.252h-1.83c-.722 0-1.312.592-1.312 1.315v10.546c0 .731.59 1.323 1.312 1.323ZM20.467 9.28h3.65v7.915h-3.65V9.28Z"/>
    <path fill="url(#e)" d="M31.098 27.668h1.829v5.17c0 .723.59 1.315 1.313 1.315.721 0 1.312-.592 1.312-1.315v-5.17h1.83c.721 0 1.312-.592 1.312-1.315V15.816c0-.724-.59-1.315-1.313-1.315h-1.829V9.249c0-.724-.59-1.315-1.313-1.315-.721 0-1.312.591-1.312 1.315V14.5h-1.83c-.721 0-1.312.591-1.312 1.315V26.36c0 .723.59 1.307 1.313 1.307ZM32.41 17.13h3.65v7.915h-3.65V17.13Z"/>
  </g>
  <defs>
    <linearGradient id="b" x1="21.003" x2="21.003" y1=".074" y2="41.984" gradientUnits="userSpaceOnUse">
      <stop stop-color="#DECEAC"/>
      <stop offset=".479" stop-color="#A48861"/>
      <stop offset="1" stop-color="#806642"/>
    </linearGradient>
    <linearGradient id="c" x1="10.361" x2="10.361" y1="10.934" y2="37.161" gradientUnits="userSpaceOnUse">
      <stop stop-color="#DECEAC"/>
      <stop offset=".479" stop-color="#A48861"/>
      <stop offset="1" stop-color="#806642"/>
    </linearGradient>
    <linearGradient id="d" x1="22.296" x2="22.296" y1=".074" y2="26.31" gradientUnits="userSpaceOnUse">
      <stop stop-color="#DECEAC"/>
      <stop offset=".479" stop-color="#A48861"/>
      <stop offset="1" stop-color="#806642"/>
    </linearGradient>
    <linearGradient id="e" x1="34.239" x2="34.239" y1="7.934" y2="34.153" gradientUnits="userSpaceOnUse">
      <stop stop-color="#DECEAC"/>
      <stop offset=".479" stop-color="#A48861"/>
      <stop offset="1" stop-color="#806642"/>
    </linearGradient>
    <clipPath id="a">
      <path fill="#fff" d="M0 0h42v42H0z"/>
    </clipPath>
  </defs>
</svg>
