<svg xmlns="http://www.w3.org/2000/svg" width="53" height="53" fill="none" viewBox="0 0 53 53">
  <g clip-path="url(#a)">
    <path fill="url(#b)" d="M15.6.7c-.3.3-.6.6-.9 1 .2-.4.5-.8.9-1Z"/>
    <path fill="url(#c)" d="M18.5 2.998c.2-.1.3-.1.5-.1-.1 0-.3 0-.5.1Z"/>
    <path fill="url(#d)" d="M22.6 18.8c.3.1.5.2.7.3-.2-.1-.5-.2-.7-.3Z"/>
    <path fill="url(#e)" d="m24.9 24.7-.8 3.1c-.3 1.3-.5 2.7-.5 4.1V44c0 4.5-3.7 8.2-8.2 8.2H1c-.6 0-1-.5-1-1 0-.6.5-1 1-1h14.4c3.4 0 6.1-2.7 6.1-6.1V32c0-1.6.2-3.2.6-4.7l.8-3.1c.2-.8 0-1.7-.6-2.3-.3-.3-.6-.5-1-.6-.3-.1-.5-.1-.8-.1-1 0-2 .7-2.3 1.7l-.9 2.7c-.6 1.7-.9 3.5-.9 5.3v8.9h-2.1v-8.9c0-2 .3-4.1.9-6l.9-2.7c.5-1.4 1.6-2.5 3.1-2.9l.5-.1v-.5l1.6-14c.1-.9-.3-1.7-1.1-2.2-.4-.2-.8-.3-1.2-.3-.3 0-.5 0-.8.1-.7.2-1.2.8-1.4 1.4l-6.7 20c-.6 1.7-.9 3.5-.9 5.4v7.8c0 .6-.5 1-1 1H1c-.6 0-1-.5-1-1 0-.6.5-1 1-1h6.1V29c0-2.1.3-4.1 1-6l6.7-20c.1-.3.3-.7.5-1 .8-1.3 2.2-2 3.7-2 .8 0 1.6.2 2.3.7 1.4.9 2.2 2.5 2 4.2l-1.5 13.8-.1.6.5.2c2.2.8 3.3 3 2.7 5.2Z"/>
    <path fill="url(#f)" d="M25.8 23.898c0 .3-.1.7-.2 1 .1-.4.2-.7.2-1Z"/>
    <path fill="url(#g)" d="M29.701 18.8c-.2.1-.3.1-.5.2.2-.1.4-.2.5-.2Z"/>
    <path fill="url(#h)" d="M43 36.9V29c0-1.8-.3-3.6-.9-5.4l-6.7-20c-.2-.7-.8-1.2-1.4-1.4-.3-.1-.5-.1-.8-.1-.4 0-.9.1-1.2.3-.7.6-1.1 1.4-1 2.3l1.5 14 .1.5.5.1c1.5.4 2.6 1.5 3.1 2.9l.9 2.6c.6 2 1 4 1 6v8.9H36v-8.9c0-1.8-.3-3.6-.9-5.3l-.9-2.7c-.3-.8-.9-1.4-1.7-1.6-.2-.1-.4-.1-.6-.1-.7 0-1.3.3-1.7.7-.6.6-.9 1.5-.7 2.3l.8 3.1c.4 1.5.6 3 .6 4.6V44c0 3.4 2.7 6.1 6.1 6.1h14.4c.6 0 1 .5 1 1 0 .6-.5 1-1 1H36.9c-4.5 0-8.2-3.7-8.2-8.2v-12c0-1.4-.1-2.8-.5-4.1l-.8-3.1c-.4-1.5.1-3.2 1.2-4.3.4-.4.9-.7 1.4-.9l.5-.2-.1-.6-1.5-13.8c-.2-2.1 1-4 3-4.7.5-.1.9-.2 1.4-.2 1.9 0 3.6 1.2 4.2 3l6.7 20c.7 2 1 4 1 6v6.8h6.1c.6 0 1 .5 1 1 0 .6-.5 1-1 1h-7.2c-.6.1-1.1-.4-1.1-.9Z"/>
    <path fill="url(#i)" d="M30.6 22.4c.1-.2.3-.3.5-.4-.1.1-.3.2-.5.4Z"/>
  </g>
  <defs>
    <linearGradient id="b" x1="15.149" x2="15.149" y1=".699" y2="1.699" gradientUnits="userSpaceOnUse">
      <stop stop-color="#DECEAC"/>
      <stop offset=".479" stop-color="#A48861"/>
      <stop offset="1" stop-color="#806642"/>
    </linearGradient>
    <linearGradient id="c" x1="18.75" x2="18.75" y1="2.898" y2="2.998" gradientUnits="userSpaceOnUse">
      <stop stop-color="#DECEAC"/>
      <stop offset=".479" stop-color="#A48861"/>
      <stop offset="1" stop-color="#806642"/>
    </linearGradient>
    <linearGradient id="d" x1="22.95" x2="22.95" y1="18.801" y2="19.101" gradientUnits="userSpaceOnUse">
      <stop stop-color="#DECEAC"/>
      <stop offset=".479" stop-color="#A48861"/>
      <stop offset="1" stop-color="#806642"/>
    </linearGradient>
    <linearGradient id="e" x1="12.531" x2="12.531" y1="0" y2="52.2" gradientUnits="userSpaceOnUse">
      <stop stop-color="#DECEAC"/>
      <stop offset=".479" stop-color="#A48861"/>
      <stop offset="1" stop-color="#806642"/>
    </linearGradient>
    <linearGradient id="f" x1="25.301" x2="25.301" y1="23.898" y2="27.998" gradientUnits="userSpaceOnUse">
      <stop stop-color="#DECEAC"/>
      <stop offset=".479" stop-color="#A48861"/>
      <stop offset="1" stop-color="#806642"/>
    </linearGradient>
    <linearGradient id="g" x1="29.451" x2="29.451" y1="18.801" y2="19.001" gradientUnits="userSpaceOnUse">
      <stop stop-color="#DECEAC"/>
      <stop offset=".479" stop-color="#A48861"/>
      <stop offset="1" stop-color="#806642"/>
    </linearGradient>
    <linearGradient id="h" x1="39.832" x2="39.832" y1="0" y2="52.1" gradientUnits="userSpaceOnUse">
      <stop stop-color="#DECEAC"/>
      <stop offset=".479" stop-color="#A48861"/>
      <stop offset="1" stop-color="#806642"/>
    </linearGradient>
    <linearGradient id="i" x1="30.85" x2="30.85" y1="22" y2="22.4" gradientUnits="userSpaceOnUse">
      <stop stop-color="#DECEAC"/>
      <stop offset=".479" stop-color="#A48861"/>
      <stop offset="1" stop-color="#806642"/>
    </linearGradient>
    <clipPath id="a">
      <path fill="#fff" d="M0 0h52.3v52.3H0z"/>
    </clipPath>
  </defs>
</svg>
