<svg xmlns="http://www.w3.org/2000/svg" width="55" height="54" fill="none" viewBox="0 0 55 54">
  <path fill="url(#a)" d="M7.283 24.866c.279 0 .548-.108.74-.302l10.518-10.12 10.914 8.622a1.06 1.06 0 0 0 1.32 0l15.652-12.201-.59 7.739c-.044.592.397 1.11.988 1.153h.086a1.08 1.08 0 0 0 1.074-.992l.784-10.185a1.074 1.074 0 0 0-.988-1.154h-.011L36.845 6.64a1.065 1.065 0 0 0-1.139 1.002c-.043.593.398 1.1.989 1.142l8.142.583-14.716 11.49-10.979-8.677a1.075 1.075 0 0 0-1.407.064L6.54 23.012a1.076 1.076 0 0 0 .742 1.854Z"/>
  <path fill="url(#b)" d="M48.565 46.346h-2.803V27.645c0-.593-.527-1.024-1.117-1.024h-6.833c-.59 0-1.063.431-1.063 1.024v18.7h-4.727V31.084c-.01-.603-.483-1.11-1.095-1.12h-6.832a1.143 1.143 0 0 0-1.096 1.12v15.263h-4.726V35.675a1.07 1.07 0 0 0-1.064-1.078h-6.854c-.59 0-1.117.485-1.117 1.078v10.67H6.424a1.08 1.08 0 0 0-1.074 1.078 1.08 1.08 0 0 0 1.074 1.078h42.141a1.08 1.08 0 0 0 1.075-1.078c0-.592-.473-1.077-1.075-1.077Zm-37.178 0v-9.593h4.726v9.593h-4.726Zm13.75 0V32.118h4.726v14.228h-4.726Zm13.75 0v-17.57h4.726v17.57h-4.726Z"/>
  <defs>
    <linearGradient id="a" x1="27.491" x2="27.491" y1="6.637" y2="24.866" gradientUnits="userSpaceOnUse">
      <stop stop-color="#DECEAC"/>
      <stop offset=".479" stop-color="#A48861"/>
      <stop offset="1" stop-color="#806642"/>
    </linearGradient>
    <linearGradient id="b" x1="27.495" x2="27.495" y1="26.621" y2="48.501" gradientUnits="userSpaceOnUse">
      <stop stop-color="#DECEAC"/>
      <stop offset=".479" stop-color="#A48861"/>
      <stop offset="1" stop-color="#806642"/>
    </linearGradient>
  </defs>
</svg>
