<svg xmlns="http://www.w3.org/2000/svg" width="58" height="48" fill="none" viewBox="0 0 58 48">
  <g clip-path="url(#a)">
    <path fill="url(#b)" d="m57.3 45.1-4-12.6c-.2-.7-.8-1.2-1.6-1.2h-8.3l-.1-.3-3.9-12.3c-.2-.7-.8-1.2-1.6-1.2H19.6c-.7 0-1.3.5-1.6 1.2L14.1 31l-.1.3H5.7c-.7 0-1.3.5-1.6 1.2l-4 12.6c-.2.5-.1 1 .2 1.5.3.4.8.7 1.3.7h54.1c.5 0 1-.2 1.3-.7.4-.4.5-1 .3-1.5ZM16.4 30.8 19.8 20l.1-.3h17.5l.1.3L41 30.8l.2.5H16.3l.1-.5ZM2.3 45.1l.2-.5L6 33.8v-.3h17.5l.1.3L27 44.6l.2.5H2.3Zm26.4-2.4-.4-1.2L26 34l-.2-.5h5.8l-.2.5-2.4 7.5-.3 1.2Zm25.8 2.4H30.1l.2-.5 3.4-10.9.1-.3h17.5l.1.3 3.5 10.8.2.5h-.6v.1ZM55.9 21h-8c-.6 0-1.1.5-1.1 1.1 0 .6.5 1.1 1.1 1.1h8c.6 0 1.1-.5 1.1-1.1 0-.7-.5-1.1-1.1-1.1ZM9.4 21h-8c-.6 0-1.1.5-1.1 1.1 0 .3.1.6.3.8.2.2.5.3.8.3h8c.6 0 1.1-.5 1.1-1.1 0-.7-.5-1.1-1.1-1.1ZM28.7 0c-.6 0-1.1.5-1.1 1.1v5.6c0 .6.5 1.1 1.1 1.1.6 0 1.1-.5 1.1-1.1V1.1c0-.6-.5-1.1-1.1-1.1ZM15.6 10.5l-5.4-4.2c-.2-.2-.4-.3-.7-.3-.3 0-.6.2-.8.4-.4.5-.3 1.2.2 1.5l5.4 4.2c.2.1.4.2.7.2.3 0 .6-.2.8-.4.2-.2.3-.5.2-.8 0-.2-.2-.5-.4-.6Zm33.1-4.1c-.2-.2-.5-.4-.9-.4-.3 0-.5.1-.7.2l-5.4 4.2c-.2.2-.4.4-.4.7 0 .3 0 .6.2.8.2.3.5.4.8.4.2 0 .5-.1.7-.2l5.4-4.2c.6-.3.6-1 .3-1.5Z"/>
  </g>
  <defs>
    <linearGradient id="b" x1="28.698" x2="28.698" y1="0" y2="47.3" gradientUnits="userSpaceOnUse">
      <stop stop-color="#DECEAC"/>
      <stop offset=".479" stop-color="#A48861"/>
      <stop offset="1" stop-color="#806642"/>
    </linearGradient>
    <clipPath id="a">
      <path fill="#fff" d="M0 0h57.4v47.3H0z"/>
    </clipPath>
  </defs>
</svg>
