<svg xmlns="http://www.w3.org/2000/svg" width="55" height="55" fill="none" viewBox="0 0 55 55">
  <g clip-path="url(#a)">
    <path fill="url(#b)" d="m54.603 50.235-6.95-6.95 3.773-3.772a.96.96 0 0 0 0-1.39l-2.978-2.979c-.199-.198-.398-.198-.795-.198s-.595.198-.794.198l-3.772 3.773-1.589-1.589c1.39-3.176 2.383-6.552 2.581-9.927l.596-10.722 7.942-7.347c.199-.198.199-.397.397-.596l1.589-7.545c0-.397 0-.595-.199-.992C54.404 0 54.007 0 53.81 0l-7.545 1.588c-.199 0-.398.199-.596.398L39.71 8.538h-1.985c-3.574 0-7.148-1.39-9.531-3.971h-.199l-.198-.199h-.595l-.198.199h-.199c-2.581 2.581-5.957 3.97-9.53 3.97h-1.986l-5.957-6.55c-.198-.199-.397-.398-.596-.398L1.191 0C.794 0 .596 0 .2.199 0 .596 0 .794 0 1.19l1.588 7.545c0 .199.199.398.398.596l7.942 7.347.595 10.722c.199 3.375.993 6.75 2.582 9.927l-1.589 1.589-3.772-3.773c-.199-.198-.397-.198-.795-.198-.198 0-.595.198-.794.198l-2.978 2.979a.96.96 0 0 0 0 1.39l3.772 3.772L0 50.235c0 .397 0 .992.397 1.39l2.978 2.978c.199.198.398.198.795.198s.595 0 .794-.198l6.95-6.95 3.573 3.971c.199.2.397.2.795.2.198 0 .595 0 .794-.2l2.978-2.978c.199-.198.199-.397.199-.794s-.199-.596-.199-.794l-3.772-3.773.595-.595c2.78 3.375 6.354 6.155 10.524 7.942h.794c4.17-1.787 7.744-4.567 10.523-7.942l.596.595-3.773 3.773a.96.96 0 0 0 0 1.39l2.979 2.978c.198.198.397.198.794.198s.596 0 .794-.198l3.773-3.773 6.95 6.95c.198.198.396.198.793.198.398 0 .596 0 .795-.198l2.978-2.979c-.397-.397-.397-.992-.794-1.39ZM3.97 52.617 2.383 51.03l6.155-6.155 1.588 1.588-6.155 6.155Zm12.112-3.177-3.772-3.772-2.979-2.978-3.772-3.773 1.588-1.589L17.87 48.05l-1.787 1.39Zm24.224-7.545-.794-.595c0-.199.198-.199.198-.397.397-.596.794-.993.993-1.589 0 0 0-.199.199-.199l.992 1.192-1.588 1.588Zm6.552-38.52 5.758-1.19-.992 5.956-6.156 5.758.199-4.567c0-.198 0-.596-.199-.794-.198-.199-.397-.397-.794-.397H42.49l4.368-4.766Zm-6.75 6.95h3.375l-.199 2.581h-5.56c-.595 0-.992 0-1.588-.198-.794 0-1.39-.199-2.184-.398-.199 0-.397-.198-.596-.198-.397-.199-.992-.397-1.39-.596-.198-.198-.595-.198-.794-.397l-1.191-.595-.596-.596c-.198-.199-.595-.397-.794-.794V7.148c2.78 1.986 5.957 3.177 9.332 3.177h2.184ZM26.407 7.148v1.986c-.199.198-.596.397-.794.794a2.74 2.74 0 0 1-.794.595l-1.192.596c-.198.199-.596.397-.794.397-.397.199-.993.397-1.39.596-.198 0-.397.198-.794.198-.794.199-1.39.398-2.184.398-.596 0-.993.198-1.589.198h-5.36v-2.581h5.757c3.177 0 6.553-1.191 9.134-3.177Zm-23.033.993-1.19-5.957 5.757 1.191L12.51 8.34h-2.184c-.199 0-.596.199-.794.397 0 .199-.199.398-.199.596l.199 4.368-6.156-5.56Zm10.723 30.974s0 .2.198.2c.397.595.596.992.993 1.588 0 .198.198.198.198.397l-.794.595-1.588-1.588.992-1.192Zm3.375 1.788c-.199-.199-.199-.398-.397-.596a73.924 73.924 0 0 1-1.986-3.177c-1.588-3.177-2.382-6.354-2.581-9.73l-.794-11.118v-1.589h5.36c.597 0 1.192 0 1.788-.198.794 0 1.588-.199 2.383-.397.198 0 .397-.2.595-.2.596-.198.993-.396 1.589-.595.198-.198.397-.198.794-.397.596-.198.993-.596 1.588-.794.199 0 .397-.199.596-.199 0 0 .198 0 .198-.198v36.534c-3.574-1.588-6.75-4.17-9.133-7.346Zm10.92 7.545V11.715s.2 0 .2.198c.198.199.396.199.595.397.397.398.992.596 1.588.795.199.198.397.198.794.397.596.198.993.397 1.589.595.198 0 .397.199.596.199.794.199 1.588.397 2.382.397.596 0 1.191.199 1.787.199h5.361l-.794 12.31c-.199 3.376-1.191 6.751-2.581 9.73-.596.992-1.192 2.183-1.986 3.176-.198.199-.198.397-.397.596-2.383 3.375-5.56 5.957-9.134 7.744Zm10.524.992-1.589-1.588L48.05 37.13l1.589 1.588-3.971 3.971-2.978 2.979-3.773 3.772Zm12.112 3.177-6.155-6.155 1.588-1.588 6.155 6.155-1.588 1.588Z"/>
  </g>
  <defs>
    <linearGradient id="b" x1="27.699" x2="27.699" y1="0" y2="54.801" gradientUnits="userSpaceOnUse">
      <stop stop-color="#DECEAC"/>
      <stop offset=".479" stop-color="#A48861"/>
      <stop offset="1" stop-color="#806642"/>
    </linearGradient>
    <clipPath id="a">
      <path fill="#fff" d="M0 0h55v55H0z"/>
    </clipPath>
  </defs>
</svg>
