<svg xmlns="http://www.w3.org/2000/svg" width="46" height="46" fill="none" viewBox="0 0 46 46">
  <g clip-path="url(#a)">
    <path fill="url(#b)" d="M31.303 0c3.902 0 7.587 1.517 10.362 4.292a14.562 14.562 0 0 1 4.292 10.362c0 3.902-1.517 7.587-4.292 10.362-2.038 2.038-4.553 3.382-7.37 3.989-2.472.52-5.073.39-7.458-.39L9.8 45.697c-.217.173-.477.303-.737.303H1.04C.477 46 0 45.523 0 44.96v-8.065c0-.26.13-.563.303-.737l1.474-1.474c.173-.173.347-.26.564-.303l2.774-.434.434-2.775c.087-.433.433-.78.867-.867l2.775-.433.433-2.775c.087-.434.434-.78.867-.867l2.775-.434.434-2.774c.043-.217.13-.434.303-.564l3.339-3.338a14.53 14.53 0 0 1-.39-7.457c.563-2.775 1.95-5.333 3.988-7.37C23.716 1.516 27.358 0 31.303 0Zm-.043 27.227c3.295 0 6.503-1.3 8.887-3.685 4.943-4.9 4.943-12.877.044-17.776-4.9-4.899-12.877-4.899-17.776 0-3.468 3.469-4.596 8.671-2.905 13.267.13.39.044.824-.26 1.127l-3.425 3.425-.52 3.209c-.087.433-.434.78-.867.867l-2.775.433-.434 2.775c-.086.433-.433.78-.867.867l-2.774.434-.434 2.774c-.087.434-.434.78-.867.867l-3.208.52-.954.955v6.633h6.503L25.84 26.707c.304-.304.737-.39 1.127-.26 1.388.52 2.862.78 4.293.78Z"/>
  </g>
  <defs>
    <linearGradient id="b" x1="22.979" x2="22.979" y1="46" y2="0" gradientUnits="userSpaceOnUse">
      <stop stop-color="#DECEAC"/>
      <stop offset=".479" stop-color="#A48861"/>
      <stop offset="1" stop-color="#806642"/>
    </linearGradient>
    <clipPath id="a">
      <path fill="#fff" d="M0 0h46v46H0z"/>
    </clipPath>
  </defs>
</svg>
