<svg xmlns="http://www.w3.org/2000/svg" width="40" height="41" fill="none" viewBox="0 0 40 41">
  <g clip-path="url(#a)">
    <path fill="url(#b)" d="M12.692 2.882C11.24 1.42 9.53.732 7.436.732c-2.051 0-3.804.688-5.257 2.15l-.042.043C.684 4.389 0 6.152 0 8.217c0 2.108.684 3.83 2.137 5.292 1.495 1.506 3.205 2.237 5.299 2.237 2.094 0 3.803-.731 5.256-2.194l.043-.043c1.453-1.463 2.18-3.184 2.18-5.292-.043-2.065-.77-3.829-2.223-5.335Zm-1.624 8.95c-.982 1.032-2.222 1.548-3.632 1.548-1.41 0-2.65-.516-3.675-1.549-.983-.99-1.453-2.194-1.453-3.614s.47-2.624 1.453-3.657l.042-.043c1.026-.99 2.223-1.462 3.633-1.505 1.41 0 2.607.516 3.59 1.462 1.025 1.033 1.538 2.28 1.538 3.657 0 1.506-.513 2.71-1.496 3.7Z"/>
    <path fill="url(#c)" d="M37.821 28.18c-1.453-1.463-3.162-2.152-5.256-2.152-2.051 0-3.804.689-5.257 2.151l-.042.043c-1.453 1.463-2.137 3.227-2.137 5.292 0 2.108.684 3.829 2.137 5.292 1.495 1.506 3.205 2.237 5.299 2.237 2.094 0 3.803-.731 5.256-2.194l.043-.043c1.453-1.463 2.18-3.184 2.18-5.292-.043-2.108-.77-3.829-2.223-5.335Zm-1.624 8.948c-1.025 1.032-2.222 1.549-3.632 1.549-1.41 0-2.65-.517-3.633-1.55-.983-.989-1.495-2.193-1.453-3.613 0-1.42.513-2.624 1.453-3.657l.043-.043c1.026-.99 2.222-1.463 3.633-1.506 1.41 0 2.606.517 3.59 1.463 1.025 1.033 1.538 2.28 1.538 3.657-.043 1.506-.556 2.71-1.539 3.7Z"/>
    <path fill="url(#d)" d="M40 1.892c0 .344-.128.56-.342.817L1.966 40.655a1.09 1.09 0 0 1-.812.344c-.342 0-.598-.129-.855-.344C.085 40.44 0 40.182 0 39.837c0-.344.085-.602.342-.86l37.65-37.902c.256-.215.512-.345.854-.345.342 0 .598.087.812.345.256.215.342.473.342.817Z"/>
  </g>
  <defs>
    <linearGradient id="b" x1="7.457" x2="7.457" y1="0" y2="15.746" gradientUnits="userSpaceOnUse">
      <stop stop-color="#DECEAC"/>
      <stop offset=".479" stop-color="#A48861"/>
      <stop offset="1" stop-color="#806642"/>
    </linearGradient>
    <linearGradient id="c" x1="32.586" x2="32.586" y1="25.297" y2="41.043" gradientUnits="userSpaceOnUse">
      <stop stop-color="#DECEAC"/>
      <stop offset=".479" stop-color="#A48861"/>
      <stop offset="1" stop-color="#806642"/>
    </linearGradient>
    <linearGradient id="d" x1="20" x2="20" y1=".73" y2="40.999" gradientUnits="userSpaceOnUse">
      <stop stop-color="#DECEAC"/>
      <stop offset=".479" stop-color="#A48861"/>
      <stop offset="1" stop-color="#806642"/>
    </linearGradient>
    <clipPath id="a">
      <path fill="#fff" d="M0 0h40v41H0z"/>
    </clipPath>
  </defs>
</svg>
