<svg xmlns="http://www.w3.org/2000/svg" width="43" height="55" fill="none" viewBox="0 0 43 55">
  <g clip-path="url(#a)">
    <path fill="url(#b)" d="M10.296 0c1.615 0 3.028.701 4.037 1.803.606.601 1.01 1.303 1.313 2.104h2.725c.606 0 1.211.501 1.211 1.202 0 .702-.505 1.202-1.211 1.202h-2.423c-.1 1.503-.706 2.906-1.615 3.908-1.01 1.102-2.523 1.803-4.037 1.803-1.615 0-3.028-.701-4.038-1.803A5.51 5.51 0 0 1 4.643 6.31H2.12c-.606-.2-1.212-.7-1.212-1.302 0-.601.505-1.202 1.212-1.202h2.725a5.784 5.784 0 0 1 1.312-2.004C7.267.701 8.681 0 10.296 0Zm17.967 22.541c-.606 0-1.211-.5-1.211-1.202 0-.601.504-1.202 1.21-1.202h10.095c.605 0 1.211.5 1.211 1.202 0 .6-.505 1.202-1.211 1.202h-.808v7.914c1.413.1 2.726.702 3.634 1.703 1.11 1.102 1.716 2.505 1.716 4.108v12.823c0 1.603-.706 3.106-1.716 4.108l-.1.1C39.971 54.299 38.558 55 36.942 55h-7.57a5.983 5.983 0 0 1-4.138-1.703c-1.11-1.102-1.716-2.505-1.716-4.108V36.366c0-1.603.706-3.105 1.716-4.107 1.01-1.002 2.22-1.603 3.634-1.703V22.64c.201-.1-.606-.1-.606-.1Zm6.965 0h-3.836v7.914h3.836v-7.914Zm1.817 10.319h-7.57c-1.01 0-1.818.4-2.524 1.002-.606.6-1.01 1.502-1.01 2.504V49.19c0 1.002.404 1.804 1.01 2.505.605.601 1.514 1.002 2.523 1.002h7.57c.91 0 1.818-.4 2.423-1.002v-.1c.606-.601 1.01-1.503 1.01-2.505V36.366c0-1.002-.404-1.803-1.01-2.504-.505-.602-1.413-1.002-2.422-1.002ZM8.075 12.924h4.845c2.019.1 3.937 1.001 5.35 2.304 1.413 1.402 2.322 3.306 2.322 5.41-.404 5.51-.505 10.92-.808 16.43 0 .6-.505 1.101-1.211 1.101h-2.928l-.403 15.729c0 .601-.505 1.102-1.212 1.102H6.258c-.605 0-1.211-.5-1.211-1.202l-.202-15.629H1.817c-.606 0-1.211-.5-1.211-1.202C.808 31.757 0 26.047 0 20.637c0-2.103.908-4.007 2.322-5.41 1.413-1.402 3.33-2.203 5.35-2.303h.403Zm4.34 2.404H7.772c-1.514.1-2.826.701-3.835 1.703-1.01 1.002-1.615 2.304-1.615 3.707 0 4.909.403 10.218.605 15.127h2.927c.606 0 1.11.501 1.212 1.102l.403 15.729h5.451l.404-15.629c0-.6.505-1.202 1.211-1.202h2.927c.202-4.608.808-10.72.606-15.127 0-1.403-.606-2.705-1.615-3.707-1.01-1.002-2.321-1.603-3.836-1.703h-.202ZM7.47 3.807h5.451c-.1-.2-.202-.3-.404-.4-.605-.602-1.413-1.003-2.321-1.003-.909 0-1.716.401-2.322 1.002l-.404.4Zm6.158 2.304H6.864c.1.902.404 1.703 1.01 2.304.605.601 1.412 1.002 2.32 1.002.91 0 1.717-.4 2.322-1.002.707-.5 1.01-1.402 1.11-2.304Z"/>
  </g>
  <defs>
    <linearGradient id="b" x1="21.45" x2="21.45" y1="0" y2="55" gradientUnits="userSpaceOnUse">
      <stop stop-color="#DECEAC"/>
      <stop offset=".479" stop-color="#A48861"/>
      <stop offset="1" stop-color="#806642"/>
    </linearGradient>
    <clipPath id="a">
      <path fill="#fff" d="M0 0h43v55H0z"/>
    </clipPath>
  </defs>
</svg>
