<svg xmlns="http://www.w3.org/2000/svg" width="59" height="62" fill="none" viewBox="0 0 59 62">
  <path fill="url(#a)" d="M6.85 51.533h45.06a4.305 4.305 0 0 0 2.516-.807A4.327 4.327 0 0 0 56 48.601a4.344 4.344 0 0 0-1.454-4.829 4.298 4.298 0 0 0 1.685-3.418 4.313 4.313 0 0 0-1.685-3.417A4.344 4.344 0 0 0 56 32.108a4.327 4.327 0 0 0-1.575-2.126 4.305 4.305 0 0 0-2.515-.806h-1.595a11.67 11.67 0 0 0 4.266-4.844 11.718 11.718 0 0 0-1.448-12.339 11.64 11.64 0 0 0-5.27-3.717 11.601 11.601 0 0 0-6.434-.336 11.633 11.633 0 0 0-5.627 3.148 11.694 11.694 0 0 0-3.098 5.668 11.72 11.72 0 0 0 .381 6.453H6.85a4.087 4.087 0 0 0-2.886 1.203 4.114 4.114 0 0 0-1.198 2.895v20.119c0 1.088.43 2.13 1.195 2.9a4.086 4.086 0 0 0 2.889 1.207Zm6.803-5.661a6.289 6.289 0 0 0-1.762-3.495 6.252 6.252 0 0 0-3.483-1.768v-6.475a6.252 6.252 0 0 0 3.483-1.768 6.289 6.289 0 0 0 1.762-3.495h23.683l.46.305h-1.594c-.99.003-1.95.346-2.72.972a4.36 4.36 0 0 0-1.511 2.469h-8.297a4.73 4.73 0 0 0-3.35 1.392 4.763 4.763 0 0 0 0 6.724 4.73 4.73 0 0 0 3.35 1.393h8.592a4.29 4.29 0 0 0 1.3 1.646 4.356 4.356 0 0 0-1.466 2.1H13.653Zm-5.245-3.386a4.394 4.394 0 0 1 2.184 1.194 4.417 4.417 0 0 1 1.19 2.192H8.408v-3.386Zm0-10.23V28.87h3.374a4.417 4.417 0 0 1-1.19 2.192 4.393 4.393 0 0 1-2.184 1.194Zm23.48 8.02H23.59a2.89 2.89 0 0 1-2.047-.85 2.91 2.91 0 0 1 0-4.108 2.89 2.89 0 0 1 2.047-.851h8.398a4.32 4.32 0 0 0 1.576 2.47 4.28 4.28 0 0 0-1.677 3.339Zm22.503 6.9c0 .661-.261 1.295-.726 1.763a2.485 2.485 0 0 1-1.754.735H36.239a2.486 2.486 0 0 1-1.661-.782 2.502 2.502 0 0 1 0-3.423 2.486 2.486 0 0 1 1.66-.781h15.673a2.485 2.485 0 0 1 1.75.731c.465.467.727 1.098.73 1.757Zm0-6.836c0 .661-.261 1.295-.726 1.763a2.485 2.485 0 0 1-1.754.735H36.239a2.486 2.486 0 0 1-1.661-.781 2.502 2.502 0 0 1 0-3.423 2.486 2.486 0 0 1 1.66-.782h15.673c.658.003 1.29.267 1.754.735.465.468.726 1.102.726 1.763v-.01Zm-2.48-9.314a2.485 2.485 0 0 1 1.661.781 2.502 2.502 0 0 1 0 3.423 2.486 2.486 0 0 1-1.661.782H36.239c-.655 0-1.283-.26-1.747-.723a2.492 2.492 0 0 1-.733-1.747c0-.661.261-1.295.726-1.763a2.485 2.485 0 0 1 1.754-.735l15.672-.018ZM44.056 9.52a9.776 9.776 0 0 1 5.447 1.652 9.827 9.827 0 0 1 3.614 4.411 9.864 9.864 0 0 1-2.119 10.719 9.789 9.789 0 0 1-5.017 2.693 9.768 9.768 0 0 1-5.663-.558 9.806 9.806 0 0 1-4.4-3.621 9.856 9.856 0 0 1-1.652-5.464 9.859 9.859 0 0 1 2.87-6.947 9.792 9.792 0 0 1 6.92-2.885ZM4.61 27.307a2.241 2.241 0 0 1 2.241-2.247h27.066c.393.699.856 1.356 1.383 1.96H7.486a.92.92 0 0 0-.922.925v18.852a.927.927 0 0 0 .922.925h24.448a4.3 4.3 0 0 0 .737 1.961H6.86a2.246 2.246 0 0 1-1.59-.661 2.261 2.261 0 0 1-.66-1.596V27.307Z"/>
  <path fill="url(#b)" d="M44.056 25.653a6.264 6.264 0 0 0 3.493-1.052 6.295 6.295 0 0 0 2.32-2.824 6.319 6.319 0 0 0-1.348-6.87 6.258 6.258 0 0 0-6.844-1.374 6.282 6.282 0 0 0-2.82 2.32 6.314 6.314 0 0 0-1.06 3.5 6.32 6.32 0 0 0 1.835 4.446 6.277 6.277 0 0 0 4.424 1.854Zm0-10.748a4.423 4.423 0 0 1 2.469.74 4.463 4.463 0 0 1 .692 6.848 4.43 4.43 0 0 1-4.835.973 4.438 4.438 0 0 1-1.993-1.638 4.46 4.46 0 0 1-.748-2.474 4.467 4.467 0 0 1 1.294-3.137 4.436 4.436 0 0 1 3.121-1.312Z"/>
  <defs>
    <linearGradient id="a" x1="29.499" x2="29.499" y1="7.637" y2="51.533" gradientUnits="userSpaceOnUse">
      <stop stop-color="#DECEAC"/>
      <stop offset=".479" stop-color="#A48861"/>
      <stop offset="1" stop-color="#806642"/>
    </linearGradient>
    <linearGradient id="b" x1="44.075" x2="44.075" y1="13.055" y2="25.653" gradientUnits="userSpaceOnUse">
      <stop stop-color="#DECEAC"/>
      <stop offset=".479" stop-color="#A48861"/>
      <stop offset="1" stop-color="#806642"/>
    </linearGradient>
  </defs>
</svg>
