<svg xmlns="http://www.w3.org/2000/svg" width="42" height="48" fill="none" viewBox="0 0 42 48">
  <g clip-path="url(#a)">
    <path fill="url(#b)" d="M42 24c0-8.802-5.45-16.773-13.582-19.883-.476-.175-1.038.044-1.211.57-.173.481.043 1.05.562 1.226C35.123 8.76 40.097 16.03 40.097 24c0 9.942-7.44 18.132-17 19.227l1.342-1.664c.346-.395.26-1.008-.13-1.358-.39-.35-.995-.263-1.34.131l-2.596 3.241a1.17 1.17 0 0 0-.303.613v.263c.043.219.13.438.346.57l3.33 2.715c.174.131.39.219.606.219.26 0 .563-.132.735-.35.347-.395.26-1.008-.13-1.358l-1.47-1.183C33.868 43.884 42 34.862 42 24ZM21.757 4.293c.043-.043.086-.087.086-.13v-.045c0-.043.044-.087.044-.131v-.569c0-.044-.044-.088-.044-.132v-.044c0-.043-.043-.087-.086-.131v-.044c-.043-.044-.087-.087-.087-.131-.043.044-.043.044-.086 0L18.254.219c-.39-.35-.995-.262-1.341.132-.347.394-.26 1.007.13 1.358L18.47 2.89C8.089 4.161 0 13.139 0 24.001c0 8.846 5.493 16.86 13.668 19.927a.96.96 0 0 0 .346.043c.39 0 .736-.219.909-.613.173-.482-.087-1.05-.563-1.226C6.92 39.329 1.903 32.059 1.903 24c0-9.942 7.44-18.176 17-19.227L17.56 6.482c-.346.394-.26 1.008.13 1.358.173.131.39.219.606.219.26 0 .562-.131.735-.35l2.725-3.417Z"/>
  </g>
  <defs>
    <linearGradient id="b" x1="21" x2="21" y1="0" y2="47.957" gradientUnits="userSpaceOnUse">
      <stop stop-color="#DECEAC"/>
      <stop offset=".479" stop-color="#A48861"/>
      <stop offset="1" stop-color="#806642"/>
    </linearGradient>
    <clipPath id="a">
      <path fill="#fff" d="M0 0h42v48H0z"/>
    </clipPath>
  </defs>
</svg>
